<svg width="150" height="38" viewBox="0 0 150 38" fill="none" xmlns="http://www.w3.org/2000/svg">
<path d="M54.488 16.8986C54.113 17.1489 53.8355 17.3327 53.6395 17.4499C52.9382 17.884 52.2697 18.2187 51.6499 18.4859C50.7527 18.8534 49.9529 19.0372 49.2357 19.0372C46.7726 19.0372 44.7334 18.2853 43.0851 16.7645C41.4368 15.2437 40.623 13.3395 40.623 11.034C40.623 8.81193 41.3571 6.88988 42.8413 5.25192C44.3255 3.61489 46.1201 2.81232 48.2409 2.81232C49.1222 2.81232 50.0673 2.96233 51.0461 3.28111C52.3184 3.68146 53.346 4.28339 54.1617 5.06815L52.7422 6.63861C52.1394 6.05449 51.3565 5.61945 50.4423 5.35224C49.7579 5.15159 49.0078 5.05221 48.1752 5.05221C46.691 5.05221 45.4347 5.65226 44.4399 6.83925C43.4451 8.04217 42.9398 9.46262 42.9398 11.1334C42.9398 12.7882 43.5098 14.1411 44.6518 15.2278C45.7938 16.3135 47.2452 16.8648 49.0069 16.8648C49.741 16.8648 50.492 16.6304 51.258 16.1804C51.8946 15.6957 52.2209 15.4613 52.2369 15.4444V12.0194H47.4739L48.1584 9.88078H54.488V16.8986ZM68.8753 12.7207C68.8753 14.3746 68.2884 15.8119 67.1136 17.0148C65.9388 18.2178 64.4874 18.8366 62.7585 18.8366C61.1599 18.8366 59.7573 18.2346 58.5496 17.0486C57.342 15.8625 56.7551 14.4252 56.7551 12.7376C56.7551 11.0668 57.327 9.62951 58.4681 8.39283C59.6091 7.15615 61.0127 6.55516 62.66 6.55516C64.4874 6.55516 65.9716 7.14022 67.1295 8.32626C68.2884 9.47949 68.8753 10.9496 68.8753 12.7207ZM66.6401 12.7544C66.6401 11.635 66.265 10.6824 65.515 9.9136C64.7649 9.1279 63.8348 8.74349 62.7257 8.74349C61.6821 8.74349 60.8008 9.14478 60.0667 9.94735C59.3326 10.749 58.9734 11.6678 58.9734 12.7038C58.9734 13.7905 59.3485 14.7093 60.0826 15.4781C60.8167 16.247 61.7309 16.6473 62.8391 16.6473C63.8676 16.6473 64.748 16.2629 65.499 15.4941C66.265 14.7253 66.6401 13.8064 66.6401 12.7544ZM83.0666 12.7207C83.0666 14.3746 82.4797 15.8119 81.3049 17.0148C80.1301 18.2178 78.6787 18.8366 76.9498 18.8366C75.3512 18.8366 73.9486 18.2346 72.741 17.0486C71.5343 15.8625 70.9464 14.4252 70.9464 12.7376C70.9464 11.0668 71.5183 9.62951 72.6594 8.39283C73.8014 7.15615 75.204 6.55516 76.8513 6.55516C78.6787 6.55516 80.1629 7.14022 81.3208 8.32626C82.4797 9.47949 83.0666 10.9496 83.0666 12.7207ZM80.8314 12.7544C80.8314 11.635 80.4564 10.6824 79.7063 9.9136C78.9562 9.1279 78.0261 8.74349 76.917 8.74349C75.8734 8.74349 74.9921 9.14478 74.258 9.94735C73.5238 10.749 73.1647 11.6678 73.1647 12.7038C73.1647 13.7905 73.5398 14.7093 74.2749 15.4781C75.008 16.247 75.9222 16.6473 77.0314 16.6473C78.059 16.6473 78.9393 16.2629 79.6904 15.4941C80.4564 14.7253 80.8314 13.8064 80.8314 12.7544ZM96.198 18.5019L94.143 18.8197V16.8311L93.703 17.3317C93.314 17.6954 92.875 17.9996 92.397 18.2346C91.697 18.5577 90.934 18.7231 90.163 18.7194C88.565 18.7194 87.194 18.1343 86.0847 16.9473C84.9755 15.7603 84.4214 14.3577 84.4214 12.7207C84.4214 11.0331 84.9755 9.57982 86.0688 8.37596C87.162 7.17209 88.499 6.5711 90.098 6.5711C91.012 6.5711 91.8111 6.72111 92.479 7.02208C92.953 7.2396 93.3601 7.52369 93.703 7.87528C93.817 8.0253 93.931 8.19219 94.046 8.3422V3.12922L96.23 2.81138L96.198 18.5019ZM94.274 12.8707C94.274 11.7016 93.882 10.7152 93.083 9.9136C92.284 9.09415 91.386 8.6938 90.359 8.6938C89.217 8.6938 88.304 9.07821 87.603 9.84703C86.949 10.5812 86.607 11.4841 86.607 12.5369C86.607 13.723 86.949 14.7084 87.635 15.4772C88.319 16.246 89.184 16.6304 90.245 16.6304C91.288 16.6304 92.202 16.2798 93.018 15.5616C93.85 14.8256 94.274 13.9236 94.274 12.8707ZM107.731 5.30254H101.614V9.46262H106.36V11.6013H101.614V18.4859L99.232 18.8366V3.1461H107.257L107.731 5.30254ZM112.641 4.08181L111.173 5.93635L109.77 4.08181L111.254 2.24414L112.641 4.08181ZM112.2 18.5019L110.015 18.8028V7.18991L112.2 6.85613V18.5019ZM122.069 6.73893L121.042 9.11102C120.907 9.09044 120.77 9.07947 120.634 9.07821C120.422 9.07821 120.21 9.09508 119.997 9.1279C119.784 9.16072 119.557 9.2451 119.313 9.3623C118.856 9.56294 118.464 9.99705 118.122 10.6487C117.743 11.3882 117.547 12.2077 117.55 13.0385V18.4859L115.366 18.8366V7.18991L117.388 6.82237V9.2451C117.649 8.82693 117.926 8.40971 118.187 7.97561C118.562 7.54056 119.002 7.22366 119.492 7.03896C119.753 6.93957 120.226 6.85519 120.943 6.78862C121.629 6.73893 122.021 6.70517 122.069 6.73893ZM138.348 18.5019L136.162 18.8197V10.8493C136.162 10.1133 135.999 9.57888 135.673 9.2451C135.346 8.91038 134.857 8.74349 134.22 8.74349C133.454 8.74349 132.867 9.06133 132.476 9.69608C132.214 10.1302 132.068 10.598 132.068 11.0659V18.485L129.882 18.8863V10.899C129.882 10.1977 129.719 9.66232 129.409 9.29573C129.082 8.92726 128.659 8.74349 128.104 8.74349H127.892C127.125 8.74349 126.57 9.06133 126.227 9.71295C125.967 10.1977 125.837 10.8156 125.837 11.5675V18.485L123.569 18.8863V7.18991L125.608 6.83925V8.32626C125.837 7.97467 126.064 7.69058 126.277 7.49087C126.864 6.93957 127.549 6.67142 128.315 6.67142C129.18 6.67142 129.816 6.8055 130.256 7.08959C130.631 7.32398 130.99 7.7909 131.35 8.4594C132.1 7.27335 133.16 6.67142 134.564 6.67142C135.901 6.67142 136.896 7.08959 137.548 7.94185C138.087 8.64317 138.348 9.6792 138.348 11.0331V18.5019ZM148.333 14.9765C148.333 16.0454 147.958 16.9314 147.208 17.6168C146.458 18.3181 145.511 18.6528 144.369 18.6528C143.504 18.6528 142.737 18.4522 142.036 18.0509C141.335 17.6505 140.814 17.1986 140.47 16.6642L142.004 15.2944C142.118 15.4613 142.216 15.5944 142.314 15.6947C142.886 16.2798 143.57 16.5807 144.369 16.5807C144.924 16.5807 145.365 16.4307 145.674 16.1466C146 15.8625 146.147 15.4613 146.147 14.9428C146.147 14.3587 145.772 13.9574 145.022 13.7398C143.537 13.2889 142.737 13.0385 142.624 12.9879C141.939 12.6372 141.449 12.2697 141.139 11.8516C140.797 11.3669 140.618 10.7321 140.618 9.9136C140.618 8.91038 140.993 8.07593 141.727 7.40743C142.461 6.73893 143.341 6.42109 144.352 6.42109C145.12 6.42109 145.837 6.58798 146.49 6.93957C147.142 7.29023 147.615 7.65776 147.892 8.0928L146.587 9.51231C146.391 9.3161 146.178 9.13728 145.952 8.97789C145.429 8.61035 144.924 8.42658 144.451 8.42658C143.994 8.42658 143.619 8.52691 143.325 8.72661C142.982 8.97789 142.803 9.34542 142.803 9.83015C142.803 10.298 142.966 10.6487 143.309 10.8662C143.603 11.05 144.223 11.2506 145.201 11.4672C146.179 11.7016 146.93 12.1028 147.469 12.671C148.072 13.272 148.333 14.0239 148.333 14.9765Z" fill="#478BEC"/>
<path d="M12.6973 14.6428C12.6973 13.0617 14.4716 13.2383 14.4716 13.2383H33.291V24.8263C33.2195 32.7622 25.4799 33.9568 25.4799 33.9568H12.6973V24.8263H23.3495C24.4497 24.8263 24.4147 23.7733 24.4147 23.7733V21.6657H12.6973V14.6428Z" fill="#478BEC"/>
<path d="M9.85578 2H32.9345H32.936V10.7805H11.9862C11.9862 10.7805 10.2118 11.0955 10.2118 12.8865V33.9566H1.33398V10.8139C1.33398 10.8139 1.51048 3.96609 9.85578 2Z" fill="#478BEC"/>
<path d="M47.2863 26.2528H45.2278V31.9896H43.8432V26.2528H41.8125V25.1035H47.2863V26.2528Z" fill="#478BEC"/>
<path d="M46.8242 29.3833C46.8242 28.8756 46.9196 28.4232 47.1104 28.0259C47.3012 27.6286 47.575 27.3212 47.9319 27.1037C48.2919 26.8861 48.7088 26.7773 49.1827 26.7773C49.8565 26.7773 50.4058 26.9886 50.8304 27.4111C51.2581 27.8336 51.4965 28.4074 51.5457 29.1326L51.555 29.4826C51.555 30.2677 51.3411 30.8983 50.9134 31.3744C50.4858 31.8473 49.9119 32.0838 49.1919 32.0838C48.4719 32.0838 47.8965 31.8473 47.4658 31.3744C47.0381 30.9014 46.8242 30.2582 46.8242 29.4448V29.3833ZM48.1581 29.4826C48.1581 29.9681 48.2473 30.3402 48.4258 30.5987C48.6042 30.8541 48.8596 30.9818 49.1919 30.9818C49.515 30.9818 49.7673 30.8557 49.9488 30.6035C50.1304 30.3481 50.2211 29.9413 50.2211 29.3833C50.2211 28.9072 50.1304 28.5383 49.9488 28.2766C49.7673 28.0149 49.5119 27.884 49.1827 27.884C48.8565 27.884 48.6042 28.0149 48.4258 28.2766C48.2473 28.5351 48.1581 28.9371 48.1581 29.4826Z" fill="#478BEC"/>
<path d="M56.8724 29.4779C56.8724 30.2661 56.697 30.8983 56.3462 31.3744C55.9985 31.8473 55.5278 32.0838 54.9339 32.0838C54.4293 32.0838 54.0216 31.9041 53.7108 31.5446V33.9567H52.377V26.8719H53.6139L53.6601 27.3733C53.9832 26.976 54.4047 26.7773 54.9247 26.7773C55.5401 26.7773 56.0185 27.0107 56.3601 27.4773C56.7016 27.9439 56.8724 28.5871 56.8724 29.4069V29.4779ZM55.5385 29.3785C55.5385 28.9024 55.4555 28.5351 55.2893 28.2766C55.1262 28.018 54.8878 27.8888 54.5739 27.8888C54.1555 27.8888 53.8678 28.0527 53.7108 28.3806V30.4758C53.8739 30.8131 54.1647 30.9818 54.5831 30.9818C55.2201 30.9818 55.5385 30.4474 55.5385 29.3785Z" fill="#478BEC"/>
<path d="M63.9396 30.5708H61.5119L61.0504 31.9896H59.5781L62.0796 25.1035H63.3627L65.878 31.9896H64.4057L63.9396 30.5708ZM61.8857 29.4215H63.5657L62.7211 26.844L61.8857 29.4215Z" fill="#478BEC"/>
<path d="M70.6906 29.4779C70.6906 30.2661 70.5153 30.8983 70.1645 31.3744C69.8168 31.8473 69.346 32.0838 68.7522 32.0838C68.2476 32.0838 67.8399 31.9041 67.5291 31.5446V33.9567H66.1953V26.8719H67.4322L67.4784 27.3733C67.8014 26.976 68.223 26.7773 68.743 26.7773C69.3583 26.7773 69.8368 27.0107 70.1783 27.4773C70.5199 27.9439 70.6906 28.5871 70.6906 29.4069V29.4779ZM69.3568 29.3785C69.3568 28.9024 69.2737 28.5351 69.1076 28.2766C68.9445 28.018 68.706 27.8888 68.3922 27.8888C67.9737 27.8888 67.686 28.0527 67.5291 28.3806V30.4758C67.6922 30.8131 67.983 30.9818 68.4014 30.9818C69.0383 30.9818 69.3568 30.4474 69.3568 29.3785Z" fill="#478BEC"/>
<path d="M76.0169 29.4779C76.0169 30.2661 75.8415 30.8983 75.4907 31.3744C75.143 31.8473 74.6723 32.0838 74.0784 32.0838C73.5738 32.0838 73.1661 31.9041 72.8553 31.5446V33.9567H71.5215V26.8719H72.7584L72.8046 27.3733C73.1276 26.976 73.5492 26.7773 74.0692 26.7773C74.6846 26.7773 75.163 27.0107 75.5046 27.4773C75.8461 27.9439 76.0169 28.5871 76.0169 29.4069V29.4779ZM74.683 29.3785C74.683 28.9024 74.5999 28.5351 74.4338 28.2766C74.2707 28.018 74.0323 27.8888 73.7184 27.8888C73.3 27.8888 73.0123 28.0527 72.8553 28.3806V30.4758C73.0184 30.8131 73.3092 30.9818 73.7276 30.9818C74.3646 30.9818 74.683 30.4474 74.683 29.3785Z" fill="#478BEC"/>
<path d="M79.2891 31.9896V25.1035H81.3568C81.9476 25.1035 82.4753 25.2407 82.9399 25.515C83.4076 25.7861 83.7722 26.1739 84.0337 26.6784C84.2953 27.1797 84.426 27.7504 84.426 28.3905V28.7074C84.426 29.3474 84.2968 29.9165 84.0383 30.4147C83.783 30.9129 83.4214 31.2991 82.9537 31.5734C82.4861 31.8477 81.9584 31.9865 81.3707 31.9896H79.2891ZM80.6738 26.2528V30.8498H81.343C81.8845 30.8498 82.2984 30.6685 82.5845 30.3059C82.8707 29.9433 83.0168 29.4247 83.023 28.7499V28.3858C83.023 27.6858 82.8814 27.1561 82.5984 26.7967C82.3153 26.4341 81.9014 26.2528 81.3568 26.2528H80.6738Z" fill="#478BEC"/>
<path d="M87.6485 32.0838C86.9165 32.0838 86.3191 31.8536 85.8576 31.3933C85.3991 30.933 85.1699 30.3197 85.1699 29.5535V29.4211C85.1699 28.9072 85.2668 28.4484 85.4607 28.0448C85.6545 27.6381 85.9284 27.326 86.2822 27.1084C86.6395 26.8877 87.0455 26.7773 87.5005 26.7773C88.1835 26.7773 88.7205 26.998 89.1115 27.4395C89.5055 27.8809 89.7025 28.5067 89.7025 29.3171V29.8751H86.5225C86.5655 30.2094 86.6945 30.4774 86.9095 30.6791C87.1285 30.8809 87.4035 30.9818 87.7365 30.9818C88.2495 30.9818 88.6515 30.7911 88.9405 30.4096L89.5965 31.1615C89.3965 31.4516 89.1255 31.6786 88.7835 31.8426C88.4425 32.0034 88.0635 32.0838 87.6485 32.0838ZM87.4965 27.884C87.2315 27.884 87.0165 27.9755 86.8495 28.1583C86.6865 28.3412 86.5825 28.6029 86.5365 28.9434H88.3915V28.8347C88.3855 28.532 88.3055 28.2986 88.1515 28.1347C87.9975 27.9676 87.7795 27.884 87.4965 27.884Z" fill="#478BEC"/>
<path d="M92.2673 30.3189L93.1953 26.8711H94.5883L92.9043 31.9884H91.6303L89.9453 26.8711H91.3393L92.2673 30.3189Z" fill="#478BEC"/>
<path d="M97.4136 32.0838C96.6816 32.0838 96.0846 31.8536 95.6226 31.3933C95.1646 30.933 94.9355 30.3197 94.9355 29.5535V29.4211C94.9355 28.9072 95.0315 28.4484 95.2255 28.0448C95.4195 27.6381 95.6935 27.326 96.0475 27.1084C96.4045 26.8877 96.8105 26.7773 97.2655 26.7773C97.9485 26.7773 98.4855 26.998 98.8765 27.4395C99.2705 27.8809 99.4676 28.5067 99.4676 29.3171V29.8751H96.2876C96.3306 30.2094 96.4596 30.4774 96.6746 30.6791C96.8936 30.8809 97.1685 30.9818 97.5015 30.9818C98.0145 30.9818 98.4166 30.7911 98.7056 30.4096L99.3615 31.1615C99.1615 31.4516 98.8905 31.6786 98.5485 31.8426C98.2075 32.0034 97.8286 32.0838 97.4136 32.0838ZM97.2616 27.884C96.9966 27.884 96.7815 27.9755 96.6145 28.1583C96.4515 28.3412 96.3476 28.6029 96.3016 28.9434H98.1565V28.8347C98.1505 28.532 98.0705 28.2986 97.9165 28.1347C97.7625 27.9676 97.5446 27.884 97.2616 27.884Z" fill="#478BEC"/>
<path d="M101.637 31.989H100.299V24.7246H101.637V31.989Z" fill="#478BEC"/>
<path d="M102.531 29.3833C102.531 28.8756 102.627 28.4232 102.818 28.0259C103.008 27.6286 103.282 27.3212 103.639 27.1037C103.999 26.8861 104.416 26.7773 104.89 26.7773C105.564 26.7773 106.113 26.9886 106.538 27.4111C106.965 27.8336 107.204 28.4074 107.253 29.1326L107.262 29.4826C107.262 30.2677 107.048 30.8983 106.621 31.3744C106.193 31.8473 105.619 32.0838 104.899 32.0838C104.179 32.0838 103.604 31.8473 103.173 31.3744C102.745 30.9014 102.531 30.2582 102.531 29.4448V29.3833ZM103.865 29.4826C103.865 29.9681 103.954 30.3402 104.133 30.5987C104.311 30.8541 104.567 30.9818 104.899 30.9818C105.222 30.9818 105.474 30.8557 105.656 30.6035C105.838 30.3481 105.928 29.9413 105.928 29.3833C105.928 28.9072 105.838 28.5383 105.656 28.2766C105.474 28.0149 105.219 27.884 104.89 27.884C104.564 27.884 104.311 28.0149 104.133 28.2766C103.954 28.5351 103.865 28.9371 103.865 29.4826Z" fill="#478BEC"/>
<path d="M112.581 29.4779C112.581 30.2661 112.406 30.8983 112.055 31.3744C111.707 31.8473 111.236 32.0838 110.643 32.0838C110.138 32.0838 109.73 31.9041 109.419 31.5446V33.9567H108.086V26.8719H109.323L109.369 27.3733C109.692 26.976 110.113 26.7773 110.633 26.7773C111.249 26.7773 111.727 27.0107 112.069 27.4773C112.41 27.9439 112.581 28.5871 112.581 29.4069V29.4779ZM111.247 29.3785C111.247 28.9024 111.164 28.5351 110.998 28.2766C110.835 28.018 110.596 27.8888 110.283 27.8888C109.864 27.8888 109.576 28.0527 109.419 28.3806V30.4758C109.583 30.8131 109.873 30.9818 110.292 30.9818C110.929 30.9818 111.247 30.4474 111.247 29.3785Z" fill="#478BEC"/>
<path d="M115.708 32.0838C114.976 32.0838 114.379 31.8536 113.917 31.3933C113.459 30.933 113.23 30.3197 113.23 29.5535V29.4211C113.23 28.9072 113.327 28.4484 113.521 28.0448C113.714 27.6381 113.988 27.326 114.342 27.1084C114.699 26.8877 115.105 26.7773 115.561 26.7773C116.244 26.7773 116.781 26.998 117.171 27.4395C117.565 27.8809 117.762 28.5067 117.762 29.3171V29.8751H114.582C114.625 30.2094 114.754 30.4774 114.97 30.6791C115.188 30.8809 115.464 30.9818 115.796 30.9818C116.31 30.9818 116.711 30.7911 117.001 30.4096L117.656 31.1615C117.456 31.4516 117.185 31.6786 116.844 31.8426C116.502 32.0034 116.124 32.0838 115.708 32.0838ZM115.556 27.884C115.291 27.884 115.076 27.9755 114.91 28.1583C114.747 28.3412 114.642 28.6029 114.596 28.9434H116.451V28.8347C116.445 28.532 116.365 28.2986 116.211 28.1347C116.057 27.9676 115.839 27.884 115.556 27.884Z" fill="#478BEC"/>
<path d="M121.331 28.1536C121.149 28.1284 120.989 28.1158 120.851 28.1158C120.346 28.1158 120.015 28.2908 119.858 28.6407V31.9892H118.525V26.8719H119.785L119.822 27.482C120.089 27.0122 120.46 26.7773 120.934 26.7773C121.081 26.7773 121.22 26.7978 121.349 26.8388L121.331 28.1536Z" fill="#478BEC"/>
</svg>
