<svg width="156" height="156" viewBox="0 0 156 156" fill="none" xmlns="http://www.w3.org/2000/svg">
<mask id="mask0_1_11643" style="mask-type:luminance" maskUnits="userSpaceOnUse" x="32" y="49" width="94" height="58">
<path d="M125.46 49.5234H32.1905V106.476H125.46V49.5234Z" fill="white"/>
</mask>
<g mask="url(#mask0_1_11643)">
<path d="M77.6205 62.2278L77.4592 62.1191L77.2423 62.4419L77.4036 62.5504L77.6205 62.2278ZM88.4289 69.9794C88.5181 70.0395 88.6394 70.0159 88.6988 69.9268C88.7591 69.8376 88.7351 69.7167 88.646 69.6567L88.4289 69.9794ZM77.4036 62.5504L88.4289 69.9794L88.646 69.6567L77.6205 62.2278L77.4036 62.5504Z" fill="url(#paint0_linear_1_11643)"/>
<path d="M77.5327 49.718L77.7155 49.6526C77.6881 49.5752 77.6146 49.5234 77.5327 49.5234C77.4504 49.5234 77.377 49.5752 77.3496 49.6527L77.5327 49.718ZM79.6665 55.7124L79.4834 55.7776L79.5281 55.9031L79.661 55.9068L79.6665 55.7124ZM86.0228 55.8911L86.1475 56.0398C86.2094 55.9878 86.2325 55.9031 86.2061 55.8269C86.1797 55.7507 86.1087 55.6989 86.0286 55.6966L86.0228 55.8911ZM72.2862 65.8818L72.0998 65.8268C72.0766 65.9058 72.1055 65.9908 72.1719 66.0391C72.2385 66.0875 72.3282 66.0888 72.396 66.0423L72.2862 65.8818ZM74.0809 59.7754L74.2674 59.8302L74.3049 59.7024L74.1995 59.6212L74.0809 59.7754ZM69.0439 55.8911L69.0385 55.6966C68.9564 55.6989 68.8846 55.7528 68.8592 55.831C68.8338 55.9091 68.8603 55.995 68.9254 56.0452L69.0439 55.8911ZM75.4001 55.7124L75.4057 55.9068L75.5387 55.9031L75.5834 55.7776L75.4001 55.7124ZM77.3496 49.7834L79.4834 55.7776L79.8493 55.6471L77.7155 49.6526L77.3496 49.7834ZM79.661 55.9068L86.0171 56.0855L86.0286 55.6966L79.672 55.5179L79.661 55.9068ZM77.423 62.1263L72.1765 65.7213L72.396 66.0423L77.6424 62.4473L77.423 62.1263ZM72.4726 65.9367L74.2674 59.8302L73.8945 59.7204L72.0998 65.8268L72.4726 65.9367ZM74.1995 59.6212L69.1626 55.7369L68.9254 56.0452L73.9625 59.9294L74.1995 59.6212ZM69.0494 56.0855L75.4057 55.9068L75.3947 55.5179L69.0385 55.6966L69.0494 56.0855ZM75.5834 55.7776L77.7155 49.7832L77.3496 49.6527L75.217 55.6471L75.5834 55.7776ZM85.8974 55.7424L81.2951 59.6265L81.5459 59.9239L86.1475 56.0398L85.8974 55.7424Z" fill="url(#paint1_linear_1_11643)"/>
<path d="M40.6199 90.9571H43.4916V90.7284C42.9454 90.5691 42.7868 90.1639 42.7868 88.7178V78.894H43.6149C45.2005 78.894 45.8875 79.3172 46.4865 80.587L46.6803 80.5518L46.5746 78.6118H37.5017L37.3959 80.5518L37.5897 80.587C38.1887 79.3172 38.8759 78.894 40.4614 78.894H41.3247V88.7178C41.3247 90.1639 41.1661 90.5691 40.6199 90.7284V90.9571ZM55.745 91.1337C58.7046 91.1337 61.9815 89.194 61.9815 84.8376C61.9815 80.5165 58.7223 78.4707 55.745 78.4707C52.0101 78.4707 49.4732 81.1514 49.4732 84.7666C49.4732 89.1412 52.75 91.1337 55.745 91.1337ZM50.8826 83.7439C50.7769 80.8692 52.3448 78.8763 55.0227 78.8763C58.1761 78.8763 60.484 82.3155 60.6073 86.0014C60.6955 88.6468 59.3036 90.6929 56.4849 90.6929C53.3314 90.6929 51.0059 87.289 50.8826 83.7439ZM66.0772 90.9571H68.9312V90.7284C68.385 90.5691 68.2265 90.1639 68.2265 88.7178V86.0724H69.4773C72.7541 86.0724 74.4629 84.4315 74.4629 82.0862C74.4629 80.3755 73.3003 78.6118 69.6535 78.6118H66.0772V78.8411C66.6057 78.9998 66.7818 79.4055 66.7818 80.8516V88.7178C66.7818 90.1639 66.6057 90.5691 66.0772 90.7284V90.9571ZM68.2265 85.8074V78.9116C68.4379 78.894 68.7197 78.8763 68.9665 78.8763C71.8028 78.8763 72.9127 80.6047 72.9127 82.4919C72.9127 84.5726 71.697 85.8074 69.4421 85.8074H68.2265ZM89.5382 91.1337C91.9872 91.1337 93.9252 89.7932 93.9252 86.2482V80.8516C93.9252 79.4055 94.1019 78.9998 94.6301 78.8411V78.6118H92.4453V78.8411C93.2203 79.0527 93.6438 79.5465 93.6438 81.557V86.301C93.6438 89.7578 91.6174 90.7631 90.102 90.7631C87.8115 90.7631 85.9973 89.5819 85.9973 86.301V80.8516C85.9973 79.4055 86.1739 78.9998 86.7022 78.8411V78.6118H83.8479V78.8411C84.3944 78.9998 84.5528 79.4055 84.5528 80.8516V86.4075C84.5528 89.9517 87.0191 91.1337 89.5382 91.1337ZM102.447 91.1337C104.526 91.1337 106.569 89.7932 106.569 87.5886C106.569 85.5961 104.737 84.8202 102.782 84.0435C101.284 83.427 99.4694 82.7567 99.4694 81.0985C99.4694 79.5994 100.685 78.7705 102.112 78.7705C104.121 78.7705 105.354 79.864 106.006 81.3984L106.182 81.3455L106.111 79.2996C105.425 78.9292 104.279 78.4884 102.676 78.4884C100.086 78.4884 98.3774 79.7934 98.3774 81.8569C98.3774 83.7266 99.6989 84.467 101.777 85.2957C103.257 85.8957 105.425 86.7071 105.425 88.471C105.425 89.8989 104.209 90.8159 102.799 90.8159C100.351 90.8159 99.0113 89.2468 98.3246 87.3947L98.1306 87.4301L98.2189 89.8816C99.0468 90.4808 100.597 91.1337 102.447 91.1337ZM108.948 90.9571H110.939V90.7284C110.34 90.6046 110.269 90.0227 110.728 88.8762L111.767 86.301H116.735L117.81 88.8936C118.373 90.2167 118.514 90.5691 117.968 90.7284V90.9571H120.699V90.7284C120.329 90.5691 119.906 90.2167 119.36 88.8936L115.026 78.4707L113.705 79.0704L113.864 79.4407C114.005 79.7229 114.022 79.9521 113.898 80.2696L110.428 88.8762C109.882 90.2167 109.441 90.5691 108.948 90.7284V90.9571ZM111.873 86.0369L114.216 80.2343L116.629 86.0369H111.873Z" fill="url(#paint2_linear_1_11643)"/>
<path d="M40.6189 90.9562H40.2303V91.345H40.6189V90.9562ZM43.4905 90.9562V91.345H43.8791V90.9562H43.4905ZM43.4905 90.7268H43.8791V90.4346L43.5988 90.3529L43.4905 90.7268ZM42.7858 78.8925V78.5034H42.3972V78.8925H42.7858ZM46.4854 80.5855L46.134 80.7517L46.2614 81.0218L46.5549 80.9684L46.4854 80.5855ZM46.6792 80.5503L46.7487 80.9331L47.086 80.8716L47.0673 80.5292L46.6792 80.5503ZM46.5735 78.6103L46.9616 78.5891L46.9415 78.2213H46.5735V78.6103ZM37.5006 78.6103V78.2213H37.1325L37.1125 78.5891L37.5006 78.6103ZM37.3949 80.5503L37.0068 80.5292L36.9881 80.8716L37.3253 80.9331L37.3949 80.5503ZM37.5887 80.5855L37.5191 80.9684L37.8127 81.0218L37.9401 80.7517L37.5887 80.5855ZM41.3236 78.8925H41.7122V78.5034H41.3236V78.8925ZM40.6189 90.7268L40.5106 90.3529L40.2303 90.4346V90.7268H40.6189ZM40.6189 91.345H43.4905V90.5666H40.6189V91.345ZM43.8791 90.9562V90.7268H43.1018V90.9562H43.8791ZM43.5988 90.3529C43.5001 90.324 43.446 90.2926 43.4105 90.2604C43.3762 90.2291 43.3365 90.1771 43.2992 90.0731C43.2169 89.8428 43.1744 89.4433 43.1744 88.7161H42.3972C42.3972 89.435 42.434 89.9616 42.5674 90.3347C42.6381 90.5328 42.7405 90.7028 42.8894 90.8374C43.0372 90.9711 43.2078 91.0495 43.3822 91.0999L43.5988 90.3529ZM43.1744 88.7161V78.8925H42.3972V88.7161H43.1744ZM42.7858 79.2815H43.6138V78.5034H42.7858V79.2815ZM43.6138 79.2815C44.3793 79.2815 44.8646 79.3852 45.2211 79.5973C45.5719 79.806 45.8507 80.151 46.134 80.7517L46.8368 80.4195C46.5212 79.7503 46.1569 79.2488 45.618 78.9284C45.0848 78.6113 44.4339 78.5034 43.6138 78.5034V79.2815ZM46.5549 80.9684L46.7487 80.9331L46.6097 80.1675L46.4159 80.2028L46.5549 80.9684ZM47.0673 80.5292L46.9616 78.5891L46.1854 78.6314L46.2911 80.5714L47.0673 80.5292ZM46.5735 78.2213H37.5006V78.9994H46.5735V78.2213ZM37.1125 78.5891L37.0068 80.5292L37.783 80.5714L37.8887 78.6314L37.1125 78.5891ZM37.3253 80.9331L37.5191 80.9684L37.6582 80.2028L37.4644 80.1675L37.3253 80.9331ZM37.9401 80.7517C38.2234 80.151 38.5021 79.806 38.8529 79.5973C39.2094 79.3852 39.6948 79.2815 40.4603 79.2815V78.5034C39.6402 78.5034 38.9892 78.6113 38.4561 78.9284C37.9172 79.2488 37.5529 79.7503 37.2372 80.4195L37.9401 80.7517ZM40.4603 79.2815H41.3236V78.5034H40.4603V79.2815ZM40.9349 78.8925V88.7161H41.7122V78.8925H40.9349ZM40.9349 88.7161C40.9349 89.4433 40.8925 89.8428 40.81 90.0731C40.7729 90.1771 40.7331 90.2291 40.6988 90.2604C40.6633 90.2926 40.6093 90.324 40.5106 90.3529L40.7271 91.0999C40.9015 91.0495 41.0721 90.9711 41.2199 90.8374C41.3689 90.7028 41.4712 90.5328 41.542 90.3347C41.6754 89.9616 41.7122 89.435 41.7122 88.7161H40.9349ZM40.2303 90.7268V90.9562H41.0074V90.7268H40.2303ZM55.7438 91.5216C57.3033 91.5216 58.9567 91.0107 60.2263 89.9121C61.5049 88.8053 62.3691 87.1214 62.3691 84.8359H61.5918C61.5918 86.9068 60.8174 88.3711 59.7179 89.3236C58.6091 90.2835 57.1442 90.7433 55.7438 90.7433V91.5216ZM62.3691 84.8359C62.3691 82.5686 61.5099 80.8693 60.2361 79.7408C58.9706 78.6196 57.3169 78.0802 55.7438 78.0802V78.8582C57.1483 78.8582 58.6128 79.3417 59.7211 80.3236C60.8214 81.2984 61.5918 82.7823 61.5918 84.8359H62.3691ZM55.7438 78.0802C53.7803 78.0802 52.1098 78.7868 50.9302 79.9889C49.7515 81.1901 49.0835 82.8649 49.0835 84.7658H49.8607C49.8607 83.0506 50.4611 81.5772 51.4846 80.5341C52.5072 79.492 53.9727 78.8582 55.7438 78.8582V78.0802ZM49.0835 84.7658C49.0835 87.0587 49.9468 88.759 51.229 89.8816C52.5027 90.9967 54.1653 91.5216 55.7438 91.5216V90.7433C54.3276 90.7433 52.8544 90.2712 51.7407 89.2964C50.6357 88.329 49.8607 86.8458 49.8607 84.7658H49.0835ZM51.2699 83.7291C51.2196 82.3628 51.5683 81.2464 52.2063 80.4796C52.8386 79.7197 53.786 79.2639 55.0215 79.2639V78.4858C53.5794 78.4858 52.4039 79.0264 51.6091 79.9817C50.82 80.9301 50.4377 82.2483 50.4931 83.7571L51.2699 83.7291ZM55.0215 79.2639C56.4449 79.2639 57.7051 80.0381 58.6391 81.2882C59.5739 82.5397 60.1587 84.2425 60.2179 86.0129L60.9948 85.9873C60.9306 84.0716 60.2998 82.2119 59.2615 80.8221C58.2223 79.4311 56.7516 78.4858 55.0215 78.4858V79.2639ZM60.2179 86.0129C60.2597 87.2684 59.9488 88.3406 59.3346 89.0908C58.728 89.832 57.7915 90.3025 56.4838 90.3025V91.08C57.995 91.08 59.1638 90.527 59.9358 89.5844C60.6999 88.6509 61.041 87.3773 60.9948 85.9873L60.2179 86.0129ZM56.4838 90.3025C55.0579 90.3025 53.7926 89.5341 52.8547 88.31C51.916 87.0835 51.3289 85.4253 51.2699 83.7291L50.4931 83.7571C50.5574 85.6052 51.1948 87.4211 52.2379 88.783C53.2819 90.1465 54.7562 91.08 56.4838 91.08V90.3025ZM66.0761 90.9562H65.6875V91.345H66.0761V90.9562ZM68.93 90.9562V91.345H69.3186V90.9562H68.93ZM68.93 90.7268H69.3186V90.4346L69.0383 90.3529L68.93 90.7268ZM68.2253 86.0707V85.6811H67.8367V86.0707H68.2253ZM66.0761 78.6103V78.2213H65.6875V78.6103H66.0761ZM66.0761 78.8396H65.6875V79.129L65.9644 79.2122L66.0761 78.8396ZM66.0761 90.7268L65.9644 90.3537L65.6875 90.4371V90.7268H66.0761ZM68.2253 85.8058H67.8367V86.1953H68.2253V85.8058ZM68.2253 78.9101L68.1931 78.5224L67.8367 78.5522V78.9101H68.2253ZM66.0761 91.345H68.93V90.5666H66.0761V91.345ZM69.3186 90.9562V90.7268H68.5415V90.9562H69.3186ZM69.0383 90.3529C68.9396 90.324 68.8856 90.2926 68.8501 90.2604C68.8158 90.2291 68.7761 90.1771 68.7388 90.0731C68.6564 89.8428 68.614 89.4433 68.614 88.7161H67.8367C67.8367 89.435 67.8735 89.9616 68.0069 90.3347C68.0777 90.5328 68.18 90.7028 68.329 90.8374C68.4768 90.9711 68.6474 91.0495 68.8218 91.0999L69.0383 90.3529ZM68.614 88.7161V86.0707H67.8367V88.7161H68.614ZM68.2253 86.4595H69.4762V85.6811H68.2253V86.4595ZM69.4762 86.4595C71.1754 86.4595 72.5205 86.0344 73.4478 85.2552C74.3826 84.4694 74.8504 83.3585 74.8504 82.0847H74.0733C74.0733 83.1562 73.6867 84.0386 72.948 84.6593C72.2016 85.2866 71.0539 85.6811 69.4762 85.6811V86.4595ZM74.8504 82.0847C74.8504 81.1392 74.5266 80.1553 73.6808 79.4134C72.8402 78.6762 71.5338 78.2213 69.6524 78.2213V78.9994C71.4177 78.9994 72.5161 79.4263 73.1685 79.9985C73.8157 80.5661 74.0733 81.3195 74.0733 82.0847H74.8504ZM69.6524 78.2213H66.0761V78.9994H69.6524V78.2213ZM65.6875 78.6103V78.8396H66.4647V78.6103H65.6875ZM65.9644 79.2122C66.0582 79.2404 66.1112 79.2718 66.1473 79.3048C66.1825 79.337 66.2232 79.3904 66.2615 79.4955C66.3456 79.7259 66.3921 80.1257 66.3921 80.8502H67.1694C67.1694 80.1284 67.128 79.6022 66.9917 79.2286C66.9199 79.0317 66.8174 78.8635 66.671 78.7299C66.5254 78.5969 66.3582 78.5181 66.1878 78.467L65.9644 79.2122ZM66.3921 80.8502V88.7161H67.1694V80.8502H66.3921ZM66.3921 88.7161C66.3921 89.4408 66.3456 89.8403 66.2615 90.0706C66.2232 90.1762 66.1825 90.2291 66.1473 90.2613C66.1112 90.2943 66.0582 90.3256 65.9644 90.3537L66.1878 91.099C66.3582 91.0479 66.5254 90.9694 66.671 90.8366C66.8174 90.7028 66.9199 90.5345 66.9917 90.3372C67.128 89.9641 67.1694 89.4375 67.1694 88.7161H66.3921ZM65.6875 90.7268V90.9562H66.4647V90.7268H65.6875ZM68.614 85.8058V78.9101H67.8367V85.8058H68.614ZM68.2576 79.2978C68.4642 79.2806 68.7341 79.2639 68.9653 79.2639V78.4858C68.7032 78.4858 68.4095 78.5044 68.1931 78.5224L68.2576 79.2978ZM68.9653 79.2639C70.3021 79.2639 71.177 79.6687 71.7199 80.2425C72.2674 80.8211 72.523 81.6199 72.523 82.4903H73.3002C73.3002 81.4737 73.0008 80.4647 72.2842 79.7074C71.5631 78.9451 70.465 78.4858 68.9653 78.4858V79.2639ZM72.523 82.4903C72.523 83.455 72.2428 84.1723 71.7513 84.6494C71.2584 85.1281 70.4997 85.417 69.441 85.417V86.1953C70.6372 86.1953 71.614 85.8668 72.2925 85.2082C72.9726 84.547 73.3002 83.6069 73.3002 82.4903H72.523ZM69.441 85.417H68.2253V86.1953H69.441V85.417ZM94.6293 78.8396L94.7407 79.2122L95.0172 79.129V78.8396H94.6293ZM94.6293 78.6103H95.0172V78.2213H94.6293V78.6103ZM92.4444 78.6103V78.2213H92.0557V78.6103H92.4444ZM92.4444 78.8396H92.0557V79.1366L92.3421 79.2149L92.4444 78.8396ZM86.7013 78.8396L86.8128 79.2122L87.0901 79.129V78.8396H86.7013ZM86.7013 78.6103H87.0901V78.2213H86.7013V78.6103ZM83.8471 78.6103V78.2213H83.4584V78.6103H83.8471ZM83.8471 78.8396H83.4584V79.1317L83.739 79.2132L83.8471 78.8396ZM89.5374 91.5216C90.8291 91.5216 92.0367 91.1667 92.9215 90.2959C93.808 89.4235 94.3131 88.0888 94.3131 86.2465H93.5356C93.5356 87.9493 93.0709 89.0578 92.3768 89.7413C91.6801 90.4272 90.6946 90.7433 89.5374 90.7433V91.5216ZM94.3131 86.2465V80.8502H93.5356V86.2465H94.3131ZM94.3131 80.8502C94.3131 80.1257 94.3594 79.7259 94.4436 79.4955C94.4815 79.3904 94.522 79.337 94.5575 79.3048C94.5938 79.2718 94.6466 79.2404 94.7407 79.2122L94.517 78.467C94.347 78.5181 94.1794 78.5969 94.0342 78.7299C93.8872 78.8635 93.7849 79.0317 93.7131 79.2286C93.5769 79.6022 93.5356 80.1284 93.5356 80.8502H94.3131ZM95.0172 78.8396V78.6103H94.2405V78.8396H95.0172ZM94.6293 78.2213H92.4444V78.9994H94.6293V78.2213ZM92.0557 78.6103V78.8396H92.8332V78.6103H92.0557ZM92.3421 79.2149C92.6582 79.3011 92.8481 79.4234 92.9867 79.6984C93.146 80.0138 93.2533 80.562 93.2533 81.5555H94.0309C94.0309 80.5387 93.9269 79.8346 93.6809 79.3475C93.4143 78.8201 93.0057 78.5896 92.5468 78.4643L92.3421 79.2149ZM93.2533 81.5555V86.3002H94.0309V81.5555H93.2533ZM93.2533 86.3002C93.2533 87.9501 92.7721 88.9555 92.1679 89.5498C91.558 90.1482 90.778 90.3727 90.1012 90.3727V91.151C90.9398 91.151 91.9294 90.8729 92.7119 90.1053C93.4993 89.3319 94.0309 88.1061 94.0309 86.3002H93.2533ZM90.1012 90.3727C89.0182 90.3727 88.102 90.0937 87.4574 89.4796C86.8177 88.8688 86.3852 87.8693 86.3852 86.3002H85.6077C85.6077 88.0112 86.0823 89.2427 86.9217 90.0425C87.7578 90.839 88.8936 91.151 90.1012 91.151V90.3727ZM86.3852 86.3002V80.8502H85.6077V86.3002H86.3852ZM86.3852 80.8502C86.3852 80.1257 86.4314 79.7259 86.5156 79.4955C86.5536 79.3904 86.5949 79.337 86.6295 79.3048C86.6658 79.2718 86.7187 79.2404 86.8128 79.2122L86.5891 78.467C86.419 78.5181 86.2515 78.5969 86.1062 78.7299C85.9593 78.8635 85.857 79.0317 85.7851 79.2286C85.6498 79.6022 85.6077 80.1284 85.6077 80.8502H86.3852ZM87.0901 78.8396V78.6103H86.3126V78.8396H87.0901ZM86.7013 78.2213H83.8471V78.9994H86.7013V78.2213ZM83.4584 78.6103V78.8396H84.2359V78.6103H83.4584ZM83.739 79.2132C83.8372 79.2418 83.8917 79.2737 83.9272 79.3059C83.961 79.337 84.0006 79.3888 84.0378 79.493C84.1211 79.7236 84.1632 80.123 84.1632 80.8502H84.9408C84.9408 80.1311 84.9036 79.6046 84.7699 79.2311C84.6998 79.0333 84.5974 78.8634 84.448 78.7286C84.3003 78.595 84.1294 78.5167 83.9552 78.466L83.739 79.2132ZM84.1632 80.8502V86.4058H84.9408V80.8502H84.1632ZM84.1632 86.4058C84.1632 88.2778 84.8203 89.5795 85.8586 90.4032C86.8821 91.2146 88.225 91.5216 89.5374 91.5216V90.7433C88.3307 90.7433 87.1809 90.4593 86.3415 89.7933C85.5169 89.1395 84.9408 88.0781 84.9408 86.4058H84.1632ZM102.781 84.0427L102.632 84.4018L102.635 84.4034L102.637 84.4042L102.781 84.0427ZM106.005 81.3969L105.647 81.5491L105.783 81.8695L106.116 81.7694L106.005 81.3969ZM106.181 81.344L106.292 81.7165L106.579 81.6304L106.569 81.3306L106.181 81.344ZM106.11 79.2981L106.498 79.2848L106.491 79.0614L106.295 78.9556L106.11 79.2981ZM101.776 85.2948L101.922 84.9341L101.921 84.9333L101.776 85.2948ZM98.3237 87.393L98.6878 87.2576L98.5738 86.9522L98.2536 87.0108L98.3237 87.393ZM98.1298 87.4285L98.0604 87.0455L97.7295 87.1058L97.741 87.4425L98.1298 87.4285ZM98.2173 89.8799L97.8293 89.894L97.8359 90.0838L97.9895 90.1952L98.2173 89.8799ZM102.446 91.5216C104.65 91.5216 106.957 90.0863 106.957 87.587H106.18C106.18 89.4969 104.399 90.7433 102.446 90.7433V91.5216ZM106.957 87.587C106.957 86.443 106.419 85.6456 105.644 85.0497C104.891 84.4711 103.891 84.065 102.924 83.6804L102.637 84.4042C103.625 84.7963 104.519 85.1661 105.171 85.6671C105.801 86.1516 106.18 86.7385 106.18 87.587H106.957ZM102.929 83.6828C102.162 83.3667 101.383 83.063 100.787 82.642C100.205 82.2314 99.8573 81.7532 99.8573 81.097H99.0798C99.0798 82.0987 99.6403 82.7848 100.339 83.2784C101.024 83.7613 101.902 84.1005 102.632 84.4018L102.929 83.6828ZM99.8573 81.097C99.8573 80.4635 100.109 79.9924 100.501 79.6721C100.901 79.345 101.469 79.158 102.111 79.158V78.38C101.327 78.38 100.574 78.6076 100.008 79.0696C99.4356 79.5385 99.0798 80.2314 99.0798 81.097H99.8573ZM102.111 79.158C103.041 79.158 103.77 79.4098 104.338 79.8225C104.91 80.2375 105.342 80.8318 105.647 81.5491L106.362 81.2446C106.015 80.4275 105.505 79.7079 104.795 79.1926C104.082 78.675 103.189 78.38 102.111 78.38V79.158ZM106.116 81.7694L106.292 81.7165L106.069 80.9714L105.893 81.0242L106.116 81.7694ZM106.569 81.3306L106.498 79.2848L105.722 79.3115L105.792 81.3573L106.569 81.3306ZM106.295 78.9556C105.561 78.5598 104.352 78.0978 102.675 78.0978V78.8759C104.204 78.8759 105.286 79.2957 105.926 79.6406L106.295 78.9556ZM102.675 78.0978C101.319 78.0978 100.153 78.439 99.3159 79.0902C98.4698 79.7488 97.9878 80.7046 97.9878 81.8554H98.7653C98.7653 80.9427 99.1376 80.2144 99.793 79.7045C100.457 79.1872 101.44 78.8759 102.675 78.8759V78.0978ZM97.9878 81.8554C97.9878 82.9028 98.3667 83.6614 99.0394 84.2565C99.6865 84.8293 100.596 85.2428 101.633 85.6564L101.921 84.9333C100.879 84.5173 100.088 84.1459 99.5544 83.6738C99.0468 83.2239 98.7653 82.6775 98.7653 81.8554H97.9878ZM101.63 85.6555C102.385 85.9609 103.251 86.2969 103.935 86.7665C104.616 87.2329 105.034 87.7743 105.034 88.4693H105.812C105.812 87.4004 105.147 86.6543 104.374 86.1244C103.605 85.5969 102.648 85.228 101.922 84.9341L101.63 85.6555ZM105.034 88.4693C105.034 89.6257 104.055 90.4255 102.798 90.4255V91.2039C104.36 91.2039 105.812 90.1696 105.812 88.4693H105.034ZM102.798 90.4255C101.664 90.4255 100.808 90.0656 100.153 89.5035C99.4917 88.9348 99.0163 88.1433 98.6878 87.2576L97.9589 87.5292C98.318 88.4949 98.8553 89.4144 99.6469 90.0937C100.446 90.7796 101.483 91.2039 102.798 91.2039V90.4255ZM98.2536 87.0108L98.0604 87.0455L98.1991 87.8115L98.3931 87.776L98.2536 87.0108ZM97.741 87.4425L97.8293 89.894L98.606 89.8659L98.5177 87.4145L97.741 87.4425ZM97.9895 90.1952C98.8817 90.8415 100.511 91.5216 102.446 91.5216V90.7433C100.68 90.7433 99.2094 90.1185 98.4451 89.5646L97.9895 90.1952ZM108.947 90.9562H108.559V91.345H108.947V90.9562ZM110.937 90.9562V91.345H111.326V90.9562H110.937ZM110.937 90.7268H111.326V90.4098L111.016 90.3454L110.937 90.7268ZM110.726 88.8746L110.366 88.7293L110.365 88.7301L110.726 88.8746ZM111.766 86.3002V85.9106H111.504L111.405 86.1541L111.766 86.3002ZM116.734 86.3002L117.092 86.1508L116.993 85.9106H116.734V86.3002ZM117.808 88.8927L117.45 89.0413V89.043L117.451 89.0446L117.808 88.8927ZM117.967 90.7268L117.858 90.3529L117.579 90.4346V90.7268H117.967ZM117.967 90.9562H117.579V91.345H117.967V90.9562ZM120.698 90.9562V91.345H121.087V90.9562H120.698ZM120.698 90.7268H121.087V90.4701L120.851 90.3694L120.698 90.7268ZM119.359 88.8927L119.718 88.7442L119.717 88.7425L119.359 88.8927ZM115.025 78.4691L115.384 78.3197L115.23 77.9492L114.865 78.1149L115.025 78.4691ZM113.703 79.0688L113.543 78.7145L113.197 78.8718L113.346 79.2221L113.703 79.0688ZM113.862 79.4392L113.505 79.5925L113.509 79.603L113.514 79.6132L113.862 79.4392ZM113.897 80.2681L114.258 80.4138L114.259 80.4115L114.26 80.4091L113.897 80.2681ZM110.427 88.8746L110.786 89.0215L110.787 89.0207L110.427 88.8746ZM108.947 90.7268L108.828 90.3562L108.559 90.4428V90.7268H108.947ZM111.871 86.0352L111.511 85.8891L111.295 86.424H111.871V86.0352ZM114.214 80.2328L114.573 80.0834L114.209 79.208L113.854 80.0871L114.214 80.2328ZM116.628 86.0352V86.424H117.21L116.987 85.8858L116.628 86.0352ZM108.947 91.345H110.937V90.5666H108.947V91.345ZM111.326 90.9562V90.7268H110.549V90.9562H111.326ZM111.016 90.3454C110.923 90.3265 110.887 90.2976 110.872 90.2811C110.857 90.2654 110.833 90.2291 110.822 90.1391C110.798 89.9377 110.862 89.5828 111.087 89.019L110.365 88.7301C110.133 89.3129 110.002 89.8221 110.05 90.2291C110.075 90.4437 110.151 90.6484 110.304 90.8118C110.455 90.9744 110.652 91.0652 110.859 91.1073L111.016 90.3454ZM111.087 89.0207L112.126 86.4454L111.405 86.1541L110.366 88.7293L111.087 89.0207ZM111.766 86.6889H116.734V85.9106H111.766V86.6889ZM116.375 86.4487L117.45 89.0413L118.168 88.7433L117.092 86.1508L116.375 86.4487ZM117.451 89.0446C117.593 89.3781 117.704 89.6397 117.784 89.8527C117.867 90.0698 117.906 90.2084 117.919 90.2984C117.931 90.3859 117.91 90.3694 117.937 90.3314C117.957 90.3025 117.965 90.3223 117.858 90.3529L118.075 91.0999C118.242 91.052 118.436 90.9678 118.567 90.787C118.704 90.5964 118.714 90.3793 118.689 90.1936C118.664 90.0103 118.597 89.8023 118.511 89.577C118.424 89.3459 118.306 89.0686 118.166 88.74L117.451 89.0446ZM117.579 90.7268V90.9562H118.356V90.7268H117.579ZM117.967 91.345H120.698V90.5666H117.967V91.345ZM121.087 90.9562V90.7268H120.309V90.9562H121.087ZM120.851 90.3694C120.619 90.2695 120.249 90.031 119.718 88.7442L118.999 89.0413C119.56 90.3999 120.037 90.8663 120.544 91.0842L120.851 90.3694ZM119.717 88.7425L115.384 78.3197L114.666 78.6187L119 89.0421L119.717 88.7425ZM114.865 78.1149L113.543 78.7145L113.864 79.4231L115.186 78.8235L114.865 78.1149ZM113.346 79.2221L113.505 79.5925L114.219 79.2859L114.061 78.9156L113.346 79.2221ZM113.514 79.6132C113.569 79.7218 113.588 79.7965 113.59 79.8599C113.594 79.9233 113.583 80.0044 113.535 80.1272L114.26 80.4091C114.335 80.2144 114.377 80.0221 114.367 79.821C114.357 79.6199 114.296 79.4388 114.21 79.2651L113.514 79.6132ZM113.537 80.1225L110.067 88.7293L110.787 89.0207L114.258 80.4138L113.537 80.1225ZM110.067 88.7277C109.801 89.3806 109.574 89.7586 109.374 89.988C109.185 90.2051 109.014 90.2959 108.828 90.3562L109.066 91.0965C109.373 90.9983 109.669 90.8341 109.96 90.4998C110.24 90.1779 110.507 89.7099 110.786 89.0215L110.067 88.7277ZM108.559 90.7268V90.9562H109.335V90.7268H108.559ZM112.232 86.1813L114.575 80.3786L113.854 80.0871L111.511 85.8891L112.232 86.1813ZM113.856 80.3823L116.27 86.1846L116.987 85.8858L114.573 80.0834L113.856 80.3823ZM116.628 85.6465H111.871V86.424H116.628V85.6465Z" fill="url(#paint3_linear_1_11643)"/>
<path d="M32.1905 103.147H52.9168" stroke="url(#paint4_linear_1_11643)" stroke-width="1.65079"/>
<path d="M59.6978 105.075C59.6978 104.801 59.7794 104.564 59.9426 104.366C60.1059 104.161 60.3302 104.005 60.6158 103.893C60.9015 103.777 61.2307 103.718 61.6037 103.718C61.8369 103.718 62.0787 103.739 62.3294 103.779C62.58 103.82 62.8044 103.876 63.0026 103.946V103.518C63.0026 103.097 62.8802 102.761 62.6354 102.511C62.3965 102.26 62.0642 102.134 61.6386 102.134C61.4115 102.134 61.1753 102.18 60.9305 102.274C60.6858 102.368 60.4351 102.501 60.1787 102.676L59.995 102.362C60.2924 102.163 60.5779 102.014 60.8519 101.915C61.1317 101.811 61.4084 101.758 61.6825 101.758C62.2244 101.758 62.6528 101.918 62.9676 102.239C63.2824 102.56 63.4398 102.998 63.4398 103.552V105.81C63.4398 105.88 63.4543 105.933 63.4834 105.968C63.5184 106.003 63.5679 106.023 63.632 106.029V106.387C63.5796 106.393 63.5359 106.397 63.5009 106.397C63.466 106.397 63.4368 106.397 63.4135 106.397C63.3027 106.379 63.2153 106.332 63.1512 106.256C63.0929 106.181 63.0609 106.096 63.055 106.003V105.644C62.8452 105.906 62.5742 106.111 62.2419 106.256C61.9157 106.402 61.5717 106.475 61.2103 106.475C60.9248 106.475 60.6653 106.414 60.4322 106.292C60.2049 106.169 60.0243 106.003 59.8901 105.792C59.7619 105.577 59.6978 105.338 59.6978 105.075ZM62.8277 105.451C62.886 105.376 62.9298 105.303 62.959 105.233C62.988 105.163 63.0026 105.098 63.0026 105.04V104.287C62.7927 104.206 62.5742 104.145 62.3468 104.104C62.1195 104.062 61.8865 104.042 61.6475 104.042C61.1928 104.042 60.8227 104.132 60.5371 104.314C60.2574 104.494 60.1175 104.739 60.1175 105.049C60.1175 105.241 60.167 105.419 60.2661 105.583C60.3651 105.746 60.5021 105.877 60.677 105.976C60.8577 106.075 61.0646 106.125 61.2978 106.125C61.6242 106.125 61.9243 106.064 62.1983 105.941C62.4779 105.813 62.6878 105.65 62.8277 105.451ZM72.4575 101.836H72.8947L70.9276 106.387H70.5429L69.5375 104.016L68.5321 106.387H68.1474L66.1802 101.836H66.6087L68.3484 105.906L69.284 103.683L68.5233 101.845H68.9168L69.5375 103.342L70.1496 101.845H70.5517L69.791 103.683L70.7265 105.906L72.4575 101.836ZM75.3076 105.075C75.3076 104.801 75.389 104.564 75.5523 104.366C75.7156 104.161 75.9397 104.005 76.2255 103.893C76.5111 103.777 76.8404 103.718 77.2135 103.718C77.4464 103.718 77.6887 103.739 77.9389 103.779C78.1896 103.82 78.4141 103.876 78.6121 103.946V103.518C78.6121 103.097 78.4897 102.761 78.2449 102.511C78.006 102.26 77.6739 102.134 77.2485 102.134C77.021 102.134 76.7851 102.18 76.5403 102.274C76.2956 102.368 76.0448 102.501 75.7883 102.676L75.6046 102.362C75.9022 102.163 76.1875 102.014 76.4614 101.915C76.7412 101.811 77.018 101.758 77.292 101.758C77.8343 101.758 78.2626 101.918 78.577 102.239C78.8919 102.56 79.0493 102.998 79.0493 103.552V105.81C79.0493 105.88 79.0641 105.933 79.0932 105.968C79.1282 106.003 79.1776 106.023 79.2417 106.029V106.387C79.1894 106.393 79.1455 106.397 79.1105 106.397C79.0755 106.397 79.0464 106.397 79.0232 106.397C78.9126 106.379 78.8252 106.332 78.761 106.256C78.7028 106.181 78.6703 106.096 78.6649 106.003V105.644C78.4546 105.906 78.1837 106.111 77.8516 106.256C77.5253 106.402 77.1814 106.475 76.8201 106.475C76.5344 106.475 76.2752 106.414 76.0419 106.292C75.8144 106.169 75.6337 106.003 75.5 105.792C75.3717 105.577 75.3076 105.338 75.3076 105.075ZM78.4374 105.451C78.4956 105.376 78.5395 105.303 78.5686 105.233C78.5978 105.163 78.6121 105.098 78.6121 105.04V104.287C78.4023 104.206 78.1837 104.145 77.9567 104.104C77.7292 104.062 77.4962 104.042 77.2569 104.042C76.8023 104.042 76.4322 104.132 76.147 104.314C75.8672 104.494 75.727 104.739 75.727 105.049C75.727 105.241 75.7769 105.419 75.8756 105.583C75.9748 105.746 76.1119 105.877 76.2866 105.976C76.4673 106.075 76.6745 106.125 76.9075 106.125C77.2337 106.125 77.5338 106.064 77.8081 105.941C78.0879 105.813 78.2976 105.65 78.4374 105.451ZM84.5842 102.231C84.1764 102.242 83.8182 102.364 83.5095 102.598C83.2058 102.826 82.9928 103.141 82.8707 103.543V106.387H82.4336V101.836H82.8533V102.957C83.011 102.636 83.2206 102.376 83.4831 102.178C83.7456 101.973 84.0221 101.857 84.3135 101.828C84.3721 101.822 84.4241 101.819 84.4711 101.819C84.5173 101.819 84.5553 101.819 84.5842 101.819V102.231ZM86.991 104.121C86.991 103.695 87.0818 103.304 87.2618 102.948C87.4425 102.592 87.6902 102.307 88.0055 102.09C88.3199 101.868 88.6782 101.758 89.081 101.758C89.4771 101.758 89.8271 101.863 90.13 102.073C90.4387 102.284 90.6806 102.534 90.8556 102.826V99.998H91.2922V105.81C91.2922 105.88 91.307 105.933 91.3368 105.968C91.3714 106.003 91.4177 106.023 91.4763 106.029V106.387C91.383 106.399 91.3128 106.402 91.2666 106.397C91.1609 106.379 91.0743 106.33 91.0041 106.247C90.934 106.166 90.8993 106.078 90.8993 105.985V105.478C90.7128 105.781 90.4618 106.023 90.1474 106.204C89.8329 106.385 89.5093 106.475 89.1767 106.475C88.8622 106.475 88.5709 106.411 88.3026 106.283C88.0343 106.148 87.8016 105.971 87.6035 105.749C87.4103 105.527 87.2593 105.276 87.1487 104.996C87.0439 104.716 86.991 104.424 86.991 104.121ZM90.8556 104.856V103.359C90.7738 103.138 90.6426 102.936 90.4618 102.756C90.2811 102.569 90.0772 102.423 89.8502 102.317C89.6224 102.208 89.3987 102.152 89.1767 102.152C88.9142 102.152 88.6757 102.208 88.4602 102.317C88.2498 102.429 88.0665 102.577 87.9089 102.765C87.7578 102.951 87.6415 103.164 87.5589 103.404C87.478 103.636 87.4368 103.879 87.4368 104.13C87.4368 104.386 87.4838 104.634 87.5771 104.874C87.6703 105.107 87.7983 105.317 87.9617 105.503C88.1309 105.685 88.3232 105.828 88.5387 105.933C88.7599 106.032 88.9992 106.081 89.2551 106.081C89.4128 106.081 89.5795 106.049 89.7536 105.985C89.9344 105.921 90.1036 105.834 90.2613 105.723C90.4239 105.606 90.5584 105.475 90.6632 105.328C90.7738 105.177 90.8382 105.02 90.8556 104.856ZM96.1728 106.475C95.8121 106.475 95.477 106.414 95.1674 106.292C94.8587 106.169 94.588 105.982 94.3544 105.731L94.5558 105.425C94.8067 105.664 95.0593 105.839 95.316 105.95C95.5727 106.055 95.8525 106.108 96.1554 106.108C96.5458 106.108 96.8611 106.026 97.0997 105.862C97.3448 105.7 97.467 105.471 97.467 105.18C97.467 104.982 97.4084 104.83 97.292 104.725C97.1814 104.614 97.018 104.526 96.8025 104.462C96.5929 104.392 96.3362 104.32 96.0333 104.244C95.7246 104.162 95.4621 104.077 95.2458 103.99C95.0362 103.902 94.8794 103.788 94.7745 103.648C94.6689 103.508 94.6169 103.319 94.6169 103.079C94.6169 102.782 94.6903 102.537 94.8356 102.345C94.9867 102.146 95.1881 102 95.439 101.906C95.6949 101.807 95.978 101.758 96.2867 101.758C96.6424 101.758 96.9511 101.816 97.2136 101.933C97.4818 102.049 97.6857 102.204 97.826 102.397L97.5891 102.676C97.4439 102.49 97.254 102.353 97.0213 102.265C96.7877 102.172 96.5318 102.125 96.252 102.125C96.0423 102.125 95.8434 102.155 95.6569 102.213C95.4703 102.271 95.3193 102.368 95.2029 102.501C95.0923 102.63 95.0362 102.805 95.0362 103.027C95.0362 103.202 95.0775 103.339 95.1592 103.438C95.2458 103.537 95.3746 103.619 95.5438 103.683C95.7122 103.741 95.9227 103.806 96.1728 103.876C96.5285 103.963 96.8347 104.054 97.0914 104.147C97.3473 104.241 97.5462 104.363 97.6857 104.515C97.826 104.661 97.8954 104.868 97.8954 105.136C97.8954 105.55 97.7377 105.877 97.4232 106.116C97.1088 106.356 96.6919 106.475 96.1728 106.475Z" fill="url(#paint5_linear_1_11643)"/>
<path d="M104.734 103.147H125.459" stroke="url(#paint6_linear_1_11643)" stroke-width="1.65079"/>
</g>
<defs>
<linearGradient id="paint0_linear_1_11643" x1="77.2263" y1="62.1863" x2="88.7211" y2="70.18" gradientUnits="userSpaceOnUse">
<stop stop-color="#B8924D"/>
<stop offset="0.654911" stop-color="#CBB491"/>
<stop offset="1" stop-color="#CBB491" stop-opacity="0"/>
</linearGradient>
<linearGradient id="paint1_linear_1_11643" x1="65.6318" y1="56.0734" x2="88.8226" y2="56.0734" gradientUnits="userSpaceOnUse">
<stop stop-color="#BD8D3B"/>
<stop offset="0.479947" stop-color="#F0C467"/>
<stop offset="0.713542" stop-color="#C2974A"/>
<stop offset="1" stop-color="#896027"/>
</linearGradient>
<linearGradient id="paint2_linear_1_11643" x1="37.4252" y1="86.131" x2="120.737" y2="84.7517" gradientUnits="userSpaceOnUse">
<stop stop-color="#BD8D3B"/>
<stop offset="0.479947" stop-color="#F0C467"/>
<stop offset="0.713542" stop-color="#C2974A"/>
<stop offset="1" stop-color="#896027"/>
</linearGradient>
<linearGradient id="paint3_linear_1_11643" x1="33.7891" y1="84.7468" x2="123.934" y2="84.7468" gradientUnits="userSpaceOnUse">
<stop stop-color="#BD8D3B"/>
<stop offset="0.479947" stop-color="#F0C467"/>
<stop offset="0.713542" stop-color="#C2974A"/>
<stop offset="1" stop-color="#896027"/>
</linearGradient>
<linearGradient id="paint4_linear_1_11643" x1="-nan" y1="-nan" x2="-nan" y2="-nan" gradientUnits="userSpaceOnUse">
<stop stop-color="#BD8D3B"/>
<stop offset="0.479947" stop-color="#F0C467"/>
<stop offset="0.713542" stop-color="#C2974A"/>
<stop offset="1" stop-color="#896027"/>
</linearGradient>
<linearGradient id="paint5_linear_1_11643" x1="60.6147" y1="104.179" x2="97.9086" y2="104.978" gradientUnits="userSpaceOnUse">
<stop stop-color="#BD8D3B"/>
<stop offset="0.479947" stop-color="#F0C467"/>
<stop offset="0.713542" stop-color="#C2974A"/>
<stop offset="1" stop-color="#896027"/>
</linearGradient>
<linearGradient id="paint6_linear_1_11643" x1="-nan" y1="-nan" x2="-nan" y2="-nan" gradientUnits="userSpaceOnUse">
<stop stop-color="#BD8D3B"/>
<stop offset="0.479947" stop-color="#F0C467"/>
<stop offset="0.713542" stop-color="#C2974A"/>
<stop offset="1" stop-color="#896027"/>
</linearGradient>
</defs>
</svg>
