<svg width="306" height="306" viewBox="0 0 306 306" fill="none" xmlns="http://www.w3.org/2000/svg">
<path d="M153.113 153L47.925 47.8125" stroke="#7D8387" stroke-width="1.8" stroke-miterlimit="10" stroke-dasharray="3.6 3.6"/>
<path d="M258.3 258.187L153.113 153" stroke="#7D8387" stroke-width="1.8" stroke-miterlimit="10" stroke-dasharray="3.6 3.6"/>
<path d="M153.113 153L258.3 47.8125" stroke="#7D8387" stroke-width="1.8" stroke-miterlimit="10" stroke-dasharray="3.6 3.6"/>
<path d="M47.925 258.187L153.113 153" stroke="#7D8387" stroke-width="1.8" stroke-miterlimit="10" stroke-dasharray="3.6 3.6"/>
<path d="M153.112 241.93C202.228 241.93 242.044 202.115 242.044 153C242.044 103.884 202.228 64.0684 153.112 64.0684C103.997 64.0684 64.1812 103.884 64.1812 153C64.1812 202.115 103.997 241.93 153.112 241.93Z" stroke="white" stroke-width="1.8" stroke-miterlimit="10"/>
<path d="M112.95 153H19.2375" stroke="white" stroke-width="1.8" stroke-miterlimit="10"/>
<path d="M286.987 153H193.275" stroke="white" stroke-width="1.8" stroke-miterlimit="10"/>
<path d="M153.113 112.838V19.125" stroke="white" stroke-width="1.8" stroke-miterlimit="10"/>
<path d="M153.113 286.875V193.162" stroke="white" stroke-width="1.8" stroke-miterlimit="10"/>
<path d="M153.113 172.125C163.675 172.125 172.238 163.562 172.238 153C172.238 142.438 163.675 133.875 153.113 133.875C142.55 133.875 133.988 142.438 133.988 153C133.988 163.562 142.55 172.125 153.113 172.125Z" fill="#F55D2D"/>
<path d="M271.688 48.8254C279.64 48.8254 286.088 42.3783 286.088 34.4254C286.088 26.4725 279.64 20.0254 271.688 20.0254C263.735 20.0254 257.288 26.4725 257.288 34.4254C257.288 42.3783 263.735 48.8254 271.688 48.8254Z" stroke="white" stroke-width="1.8"/>
<path d="M34.5375 48.8254C42.4904 48.8254 48.9375 42.3783 48.9375 34.4254C48.9375 26.4725 42.4904 20.0254 34.5375 20.0254C26.5846 20.0254 20.1375 26.4725 20.1375 34.4254C20.1375 42.3783 26.5846 48.8254 34.5375 48.8254Z" stroke="white" stroke-width="1.8"/>
<path d="M271.688 285.975C279.64 285.975 286.088 279.528 286.088 271.575C286.088 263.622 279.64 257.175 271.688 257.175C263.735 257.175 257.288 263.622 257.288 271.575C257.288 279.528 263.735 285.975 271.688 285.975Z" stroke="white" stroke-width="1.8"/>
<path d="M34.5375 285.975C42.4904 285.975 48.9375 279.528 48.9375 271.575C48.9375 263.622 42.4904 257.175 34.5375 257.175C26.5846 257.175 20.1375 263.622 20.1375 271.575C20.1375 279.528 26.5846 285.975 34.5375 285.975Z" stroke="white" stroke-width="1.8"/>
</svg>
