<svg width="144" height="144" viewBox="0 0 144 144" fill="none" xmlns="http://www.w3.org/2000/svg">
<g clip-path="url(#clip0_0_1055)">
<mask id="mask0_0_1055" style="mask-type:luminance" maskUnits="userSpaceOnUse" x="28" y="0" width="88" height="144">
<path d="M116 0H28V144H116V0Z" fill="white"/>
</mask>
<g mask="url(#mask0_0_1055)">
<path d="M28 66.4431V99.6639C28 96.8955 116 91.3587 116 77.5167V44.2959C116 58.1379 28 63.6747 28 66.4431Z" fill="black"/>
<path d="M28 22.1462V55.367C28 52.5986 116 47.0618 116 33.2198V-0.000976562C116 13.841 28 19.3778 28 22.1462Z" fill="black"/>
<path d="M28 110.736V143.957C28 141.189 116 135.652 116 121.81V88.5889C116 102.431 28 107.968 28 110.736Z" fill="black"/>
</g>
</g>
<defs>
<clipPath id="clip0_0_1055">
<rect width="144" height="144" fill="white"/>
</clipPath>
</defs>
</svg>
