<svg width="160" height="32" viewBox="0 0 160 32" fill="none" xmlns="http://www.w3.org/2000/svg">
<path d="M160 16.9149C160 13.4385 157.629 11.4127 154.504 11.4127C153.752 11.3855 153.002 11.5144 152.302 11.7912C151.602 12.068 150.967 12.4867 150.437 13.021C149.907 13.5553 149.494 14.1936 149.222 14.8956C148.951 15.5977 148.828 16.3483 148.861 17.1002C148.829 17.855 148.951 18.6084 149.222 19.3138C149.493 20.0191 149.905 20.6613 150.434 21.2006C150.963 21.7399 151.598 22.1647 152.298 22.4487C152.998 22.7327 153.749 22.8699 154.504 22.8517C155.655 22.8672 156.79 22.5808 157.795 22.0209C158.312 21.7261 158.764 21.3312 159.126 20.8594C159.488 20.3875 159.753 19.8482 159.904 19.273H157.61C157.047 20.2827 156.044 20.7748 154.625 20.7748C152.708 20.7748 151.283 19.273 151.283 17.8415H159.974C160 17.4326 160 17.1769 160 16.9149ZM151.258 15.8222C151.413 15.1143 151.817 14.4855 152.396 14.0494C152.975 13.6134 153.691 13.399 154.415 13.4449C156.057 13.4449 157.405 14.429 157.61 15.8222H151.29H151.258Z" fill="black"/>
<path d="M48.7104 18.5381C48.3903 19.2206 47.8459 19.7728 47.168 20.1027C46.4901 20.4326 45.7197 20.5203 44.985 20.3511C44.2504 20.1819 43.5959 19.766 43.1306 19.1729C42.6653 18.5797 42.4173 17.845 42.428 17.0912C42.4386 16.3374 42.7072 15.6099 43.1891 15.0301C43.6709 14.4503 44.3369 14.0531 45.076 13.9048C45.8152 13.7564 46.5828 13.8657 47.2511 14.2146C47.9194 14.5635 48.448 15.1309 48.7488 15.8222H51.3049C50.9727 14.455 50.1509 13.257 48.995 12.4549C47.8391 11.6528 46.4293 11.3022 45.0323 11.4695C43.6354 11.6368 42.3482 12.3104 41.4143 13.3627C40.4805 14.415 39.9648 15.7732 39.9648 17.1801C39.9648 18.5871 40.4805 19.9452 41.4143 20.9976C42.3482 22.0499 43.6354 22.7235 45.0323 22.8907C46.4293 23.058 47.8391 22.7075 48.995 21.9054C50.1509 21.1033 50.9727 19.9053 51.3049 18.5381H48.7488H48.7104Z" fill="black"/>
<path d="M60.4107 11.8986C59.6916 11.5615 58.9042 11.3952 58.1102 11.4129C57.2868 11.4216 56.4835 11.668 55.7968 12.1222V11.8027H53.4451V22.4683H55.8096V17.3559C55.7737 16.6602 55.823 15.9628 55.9566 15.2791V15.228C56.026 15.0008 56.1396 14.7895 56.2909 14.6063C56.4423 14.4232 56.6284 14.2718 56.8385 14.1608C57.2203 13.9173 57.6637 13.788 58.1165 13.788C58.5694 13.788 59.0128 13.9173 59.3946 14.1608L60.4107 11.8986Z" fill="black"/>
<path d="M69.338 11.8027V16.9151C69.374 17.6108 69.3246 18.3083 69.1911 18.992V19.0431C69.0525 19.4974 68.7401 19.8787 68.322 20.1039C67.9401 20.3474 67.4967 20.4767 67.0439 20.4767C66.591 20.4767 66.1476 20.3474 65.7658 20.1039C65.3476 19.8787 65.0352 19.4974 64.8967 19.0431V18.992C64.7631 18.3083 64.7138 17.6108 64.7497 16.9151V11.8027H62.3916V17.618C62.3364 18.5707 62.4733 19.5248 62.7942 20.4235C63.1599 21.2873 63.8475 21.9749 64.7113 22.3406C65.4305 22.6777 66.2179 22.8439 67.0119 22.8263C67.8352 22.8175 68.6385 22.5712 69.3253 22.1169V22.4684H71.6578V11.8027H69.338Z" fill="black"/>
<path d="M76.9301 22.4682V17.3558C76.8978 16.6575 76.9515 15.9578 77.0898 15.2725V15.2214C77.2284 14.7671 77.5408 14.3858 77.9589 14.1606C78.3408 13.9171 78.7842 13.7878 79.237 13.7878C79.6899 13.7878 80.1333 13.9171 80.5151 14.1606C80.9333 14.3858 81.2456 14.7671 81.3842 15.2214V15.2725C81.514 15.9588 81.5591 16.6585 81.5184 17.3558V22.4682H83.8637V16.6529C83.925 15.7015 83.7947 14.7475 83.4803 13.8474C83.1145 12.9836 82.427 12.296 81.5632 11.9303C80.844 11.5932 80.0566 11.427 79.2626 11.4446C78.4393 11.4534 77.636 11.6997 76.9492 12.154V11.8344H74.5848V22.4682H76.9301Z" fill="black"/>
<path d="M94.7464 18.5381C94.4262 19.2206 93.8818 19.7728 93.204 20.1027C92.5261 20.4326 91.7556 20.5203 91.021 20.3511C90.2863 20.1819 89.6318 19.766 89.1665 19.1729C88.7012 18.5797 88.4532 17.845 88.4639 17.0912C88.4745 16.3374 88.7431 15.6099 89.225 15.0301C89.7068 14.4503 90.3728 14.0531 91.112 13.9048C91.8511 13.7564 92.6188 13.8657 93.2871 14.2146C93.9554 14.5635 94.4839 15.1309 94.7847 15.8222H97.3409C97.0087 14.455 96.1869 13.257 95.031 12.4549C93.8751 11.6528 92.4652 11.3022 91.0683 11.4695C89.6713 11.6368 88.3841 12.3104 87.4503 13.3627C86.5164 14.415 86.0007 15.7732 86.0007 17.1801C86.0007 18.5871 86.5164 19.9452 87.4503 20.9976C88.3841 22.0499 89.6713 22.7235 91.0683 22.8907C92.4652 23.058 93.8751 22.7075 95.031 21.9054C96.1869 21.1033 97.0087 19.9053 97.3409 18.5381H94.7847H94.7464Z" fill="black"/>
<path d="M101.847 22.4681V17.3557C101.811 16.6601 101.86 15.9627 101.994 15.2789V15.2278C102.063 15.0006 102.177 14.7893 102.328 14.6062C102.479 14.423 102.666 14.2716 102.876 14.1606C103.257 13.9171 103.701 13.7878 104.154 13.7878C104.607 13.7878 105.05 13.9171 105.432 14.1606C105.85 14.3859 106.162 14.7671 106.301 15.2214V15.2726C106.434 15.9563 106.484 16.6537 106.448 17.3494V22.4617H108.793V16.6464C108.848 15.6938 108.711 14.7398 108.391 13.8411C108.025 12.9773 107.337 12.2897 106.473 11.924C105.754 11.5869 104.967 11.4206 104.173 11.4383C103.35 11.447 102.546 11.6933 101.86 12.1476V5.99998H99.5017V22.4681H101.847Z" fill="black"/>
<path d="M117.247 11.4127H116.825C115.817 11.4864 114.846 11.8284 114.014 12.4032V5.99998H111.681V22.4681H114.026V21.8674C114.769 22.3896 115.624 22.7288 116.523 22.857C117.421 22.9853 118.337 22.8991 119.196 22.6055C120.055 22.3118 120.832 21.8191 121.464 21.1675C122.096 20.5159 122.565 19.7241 122.832 18.8566C123.099 17.9892 123.157 17.0709 123.002 16.1768C122.846 15.2826 122.481 14.4379 121.936 13.7119C121.391 12.9858 120.683 12.399 119.868 11.9994C119.053 11.5998 118.155 11.3988 117.247 11.4127ZM120.545 17.573V17.6753C120.523 17.8112 120.494 17.9457 120.455 18.0779C120.412 18.2198 120.358 18.3586 120.295 18.4932V18.5444C120.075 19.0024 119.753 19.4037 119.353 19.7173C118.953 20.0309 118.486 20.2483 117.989 20.3529L117.675 20.404H117.605C117.486 20.4106 117.366 20.4106 117.247 20.404C117.098 20.4035 116.948 20.3928 116.8 20.372H116.698C116.408 20.3248 116.127 20.2388 115.861 20.1164H115.797C115.528 19.9845 115.279 19.8168 115.055 19.618C114.831 19.4134 114.635 19.179 114.474 18.9214C114.394 18.7902 114.324 18.6535 114.263 18.5124C114.075 18.0833 113.981 17.6188 113.988 17.1503C113.994 16.6818 114.101 16.2202 114.301 15.7966C114.544 15.2835 114.915 14.8416 115.379 14.5136C115.842 14.1857 116.382 13.9827 116.947 13.9242C117.06 13.9183 117.173 13.9183 117.286 13.9242C118.138 13.9353 118.953 14.2754 119.56 14.8732C120.167 15.471 120.52 16.2803 120.545 17.1321C120.555 17.2789 120.555 17.4262 120.545 17.573Z" fill="black"/>
<path d="M146.963 14.9913V14.9401C146.963 13.2019 145.627 11.4318 142.649 11.3998C139.671 11.3679 138.381 13.1508 138.342 14.8635V14.9913C138.406 15.9946 138.981 17.2727 141.205 17.7967L143.186 18.244C143.697 18.359 144.567 18.6466 144.637 19.2984C144.637 20.1995 143.48 20.6724 142.649 20.6724C141.691 20.6724 140.662 20.142 140.662 19.2921V19.2409H138.342V19.2729C138.342 21.0111 139.678 22.7812 142.656 22.8132C145.634 22.8451 146.969 21.0175 146.969 19.2729V19.2409C146.918 18.2248 146.369 16.9276 144.106 16.4036L142.125 15.9562C141.691 15.8604 140.675 15.5664 140.675 14.921C140.675 13.9113 141.704 13.5534 142.662 13.5534C143.621 13.5534 144.65 14.0838 144.65 14.9338V14.9913H146.969H146.963Z" fill="black"/>
<path d="M124.89 17.1322C124.9 18.1692 125.189 19.1843 125.729 20.07C126.268 20.9558 127.037 21.6793 127.954 22.1639C128.87 22.6485 129.901 22.8762 130.937 22.8229C131.973 22.7696 132.975 22.4373 133.837 21.8611V22.4682H136.182V11.8025H133.85V12.4416C133.017 11.8667 132.047 11.5248 131.038 11.4511H130.616C129.107 11.4577 127.661 12.0569 126.59 13.1196C125.519 14.1824 124.909 15.6234 124.89 17.1322ZM127.312 17.1322C127.314 16.2582 127.662 15.4204 128.28 14.8024C128.898 14.1844 129.736 13.8364 130.61 13.8347C130.722 13.8289 130.835 13.8289 130.948 13.8347C131.513 13.8932 132.053 14.0962 132.517 14.4242C132.98 14.7522 133.351 15.194 133.594 15.7071C133.794 16.1308 133.901 16.5924 133.908 17.0609C133.914 17.5294 133.82 17.9939 133.632 18.4231C133.572 18.5641 133.501 18.7008 133.421 18.832C133.26 19.0897 133.065 19.324 132.84 19.5286C132.616 19.7275 132.367 19.8952 132.099 20.0271H132.035C131.768 20.1495 131.487 20.2354 131.198 20.2827H131.095C130.947 20.3035 130.798 20.3141 130.648 20.3146C130.529 20.3212 130.409 20.3212 130.29 20.3146H130.245L129.932 20.2635C129.445 20.1533 128.99 19.9345 128.599 19.6236C128.208 19.3127 127.893 18.9176 127.676 18.4678V18.4167C127.614 18.282 127.56 18.1432 127.517 18.0013C127.478 17.8691 127.448 17.7346 127.427 17.5987V17.4964C127.382 17.3774 127.343 17.2557 127.312 17.1322Z" fill="black"/>
<path d="M28.7999 0H3.19999C2.35238 0.00350982 1.54048 0.341778 0.941133 0.941133C0.341777 1.54049 0.00350981 2.35238 0 3.19999V28.7999C0.00350981 29.6475 0.341777 30.4594 0.941133 31.0588C1.54048 31.6581 2.35238 31.9964 3.19999 31.9999H28.7999C29.6475 31.9964 30.4594 31.6581 31.0588 31.0588C31.6581 30.4594 31.9964 29.6475 31.9999 28.7999V3.19999C31.9964 2.35238 31.6581 1.54049 31.0588 0.941133C30.4594 0.341778 29.6475 0.00350982 28.7999 0Z" fill="#146AFF"/>
<path d="M13.12 17.8932C12.8537 18.4778 12.3952 18.9536 11.8209 19.2416C11.2466 19.5295 10.591 19.6121 9.96315 19.4758C9.33533 19.3395 8.77307 18.9924 8.36985 18.4923C7.96663 17.9921 7.74675 17.369 7.74675 16.7266C7.74675 16.0841 7.96663 15.461 8.36985 14.9608C8.77307 14.4607 9.33533 14.1136 9.96315 13.9773C10.591 13.841 11.2466 13.9236 11.8209 14.2115C12.3952 14.4995 12.8537 14.9753 13.12 15.5599H15.3334C15.0481 14.3911 14.3444 13.3673 13.3554 12.6822C12.3665 11.9971 11.1608 11.6981 9.96622 11.8418C8.77171 11.9854 7.67126 12.5618 6.87294 13.4619C6.07461 14.362 5.63377 15.5234 5.63377 16.7266C5.63377 17.9297 6.07461 19.0911 6.87294 19.9912C7.67126 20.8913 8.77171 21.4677 9.96622 21.6113C11.1608 21.755 12.3665 21.456 13.3554 20.7709C14.3444 20.0858 15.0481 19.062 15.3334 17.8932H13.12Z" fill="white"/>
<path d="M21.3332 11.8002H20.9732C20.114 11.8681 19.2871 12.1575 18.5732 12.6402V7.16013H16.5733V21.2534H18.5865V20.7467C19.2431 21.1897 19.9971 21.4672 20.7842 21.5554C21.5713 21.6436 22.3681 21.54 23.1065 21.2534C23.623 21.058 24.1013 20.7737 24.5198 20.4134C25.2809 19.763 25.8241 18.8949 26.0763 17.926C26.3285 16.9572 26.2775 15.9344 25.9301 14.9956C25.5827 14.0567 24.9558 13.2469 24.1337 12.6755C23.3117 12.1041 22.3342 11.7986 21.3332 11.8002ZM24.1332 17.1334C24.1396 17.1642 24.1396 17.1959 24.1332 17.2267C24.1192 17.3449 24.0924 17.4611 24.0532 17.5734C24.0168 17.6919 23.9723 17.8077 23.9198 17.9201C23.6457 18.5072 23.1737 18.9793 22.5865 19.2534C22.4121 19.3398 22.2288 19.4069 22.0398 19.4534H21.7732H21.3332H20.9598H20.8665C20.617 19.4124 20.3745 19.336 20.1465 19.2267C19.917 19.1175 19.7056 18.9736 19.5198 18.8001C19.327 18.6252 19.1608 18.4231 19.0265 18.2001C19.0265 18.0801 18.8932 17.9734 18.8398 17.8534C18.6895 17.4945 18.6124 17.1092 18.6132 16.7201C18.6112 16.3051 18.7023 15.8951 18.8798 15.5201C19.0893 15.0818 19.4076 14.7047 19.8045 14.4245C20.2013 14.1444 20.6634 13.9707 21.1465 13.9202H21.4265C22.1762 13.9202 22.8951 14.218 23.4252 14.7481C23.9553 15.2781 24.2532 15.997 24.2532 16.7467C24.2187 16.8554 24.1787 16.9622 24.1332 17.0667V17.1334Z" fill="white"/>
</svg>
