<svg width="15" height="15" viewBox="0 0 15 15" fill="none" xmlns="http://www.w3.org/2000/svg">
<mask id="mask0_0_566" style="mask-type:alpha" maskUnits="userSpaceOnUse" x="0" y="0" width="15" height="15">
<g clip-path="url(#clip0_0_566)">
<g clip-path="url(#clip1_0_566)">
<path d="M7.42501 11.7252L3.53751 14.0752C3.43237 14.1403 3.31026 14.1728 3.18664 14.1686C3.06302 14.1643 2.94344 14.1234 2.84306 14.0511C2.74268 13.9789 2.666 13.8784 2.62273 13.7625C2.57946 13.6467 2.57156 13.5205 2.60001 13.4002L3.63751 8.98767L0.21251 6.01267C0.121935 5.9313 0.0570985 5.82525 0.0259655 5.70754C-0.00516758 5.58983 -0.00124166 5.46559 0.037261 5.35009C0.0757636 5.23458 0.147166 5.13283 0.242698 5.05734C0.338229 4.98186 0.453729 4.93592 0.57501 4.92517L5.07501 4.53767L6.85001 0.375168C6.89804 0.262425 6.97815 0.166289 7.08039 0.0987161C7.18262 0.0311438 7.30246 -0.00488281 7.42501 -0.00488281C7.54756 -0.00488281 7.6674 0.0311438 7.76963 0.0987161C7.87187 0.166289 7.95198 0.262425 8.00001 0.375168L9.76251 4.53767L14.275 4.92517C14.3984 4.93232 14.5167 4.97662 14.6145 5.05227C14.7122 5.12791 14.7848 5.23135 14.8226 5.34899C14.8605 5.46664 14.8619 5.59299 14.8266 5.71144C14.7913 5.82989 14.7211 5.9349 14.625 6.01267L11.25 8.98767L12.275 13.4002C12.3013 13.5188 12.2924 13.6425 12.2494 13.7561C12.2065 13.8698 12.1313 13.9685 12.0332 14.0401C11.9351 14.1117 11.8182 14.1532 11.6968 14.1594C11.5755 14.1656 11.455 14.1364 11.35 14.0752L7.42501 11.7252Z" fill="black"/>
</g>
</g>
</mask>
<g mask="url(#mask0_0_566)">
<rect width="15" height="15" fill="#E62415"/>
</g>
<defs>
<clipPath id="clip0_0_566">
<rect width="15" height="15" fill="white"/>
</clipPath>
<clipPath id="clip1_0_566">
<rect width="15" height="15" fill="white"/>
</clipPath>
</defs>
</svg>
