<svg width="15" height="15" viewBox="0 0 15 15" fill="none" xmlns="http://www.w3.org/2000/svg">
<mask id="mask0_0_623" style="mask-type:alpha" maskUnits="userSpaceOnUse" x="0" y="0" width="15" height="15">
<g clip-path="url(#clip0_0_623)">
<g clip-path="url(#clip1_0_623)">
<path d="M7.42499 2.2248L8.61249 4.9998L8.91249 5.6873L9.66249 5.7623L12.7 6.0123L10.3875 8.0498L9.82499 8.5373L9.99999 9.2748L10.6875 12.2373L8.07499 10.6498L7.42499 10.2623L6.77499 10.6498L4.16249 12.2373L4.84999 9.2748L4.99999 8.5373L4.42499 8.0498L2.14999 6.0373L5.18749 5.7873L5.93749 5.7123L6.24999 4.9998L7.49999 2.1998M7.42499 -0.000197696C7.3023 -0.00401692 7.18139 0.0298889 7.07857 0.0969455C6.97575 0.164002 6.89597 0.260982 6.84999 0.374802L5.07499 4.5373L0.574994 4.9248C0.453714 4.93555 0.338214 4.98149 0.242682 5.05698C0.147151 5.13247 0.0757483 5.23421 0.0372457 5.34972C-0.00125692 5.46523 -0.00518284 5.58947 0.0259502 5.70718C0.0570832 5.82488 0.121919 5.93093 0.212494 6.0123L3.63749 8.9873L2.59999 13.3998C2.57711 13.4923 2.5757 13.5889 2.59587 13.6821C2.61604 13.7752 2.65726 13.8626 2.71637 13.9374C2.77548 14.0122 2.85092 14.0724 2.93691 14.1136C3.0229 14.1547 3.11717 14.1757 3.21249 14.1748C3.32799 14.1721 3.44048 14.1375 3.53749 14.0748L7.42499 11.7248L11.3125 14.0748C11.4166 14.1426 11.5388 14.1771 11.663 14.1738C11.7872 14.1705 11.9074 14.1295 12.0078 14.0563C12.1081 13.9831 12.1838 13.8811 12.2249 13.7638C12.2659 13.6466 12.2703 13.5196 12.2375 13.3998L11.25 8.9873L14.625 6.0123C14.721 5.93453 14.7913 5.82952 14.8266 5.71107C14.8619 5.59262 14.8605 5.46628 14.8226 5.34863C14.7847 5.23098 14.7122 5.12754 14.6144 5.0519C14.5167 4.97626 14.3984 4.93195 14.275 4.9248L9.76249 4.5373L7.99999 0.374802C7.9512 0.263004 7.87076 0.167927 7.76859 0.101292C7.66642 0.0346571 7.54698 -0.000622463 7.42499 -0.000197696Z" fill="black"/>
</g>
</g>
</mask>
<g mask="url(#mask0_0_623)">
<rect width="15" height="15" fill="#E62415"/>
</g>
<defs>
<clipPath id="clip0_0_623">
<rect width="15" height="15" fill="white"/>
</clipPath>
<clipPath id="clip1_0_623">
<rect width="15" height="15" fill="white"/>
</clipPath>
</defs>
</svg>
