<svg width="15" height="15" viewBox="0 0 15 15" fill="none" xmlns="http://www.w3.org/2000/svg">
<mask id="mask0_0_614" style="mask-type:alpha" maskUnits="userSpaceOnUse" x="0" y="0" width="15" height="15">
<g clip-path="url(#clip0_0_614)">
<g clip-path="url(#clip1_0_614)">
<path d="M7.42499 11.7252L3.53749 14.0752C3.43236 14.1403 3.31024 14.1728 3.18662 14.1686C3.063 14.1643 2.94343 14.1234 2.84305 14.0511C2.74266 13.9789 2.66598 13.8784 2.62272 13.7625C2.57945 13.6467 2.57154 13.5205 2.59999 13.4002L3.63749 8.98767L0.212494 6.01267C0.121919 5.9313 0.0570832 5.82525 0.0259502 5.70754C-0.00518284 5.58983 -0.00125692 5.46559 0.0372457 5.35009C0.0757483 5.23458 0.147151 5.13283 0.242682 5.05734C0.338214 4.98186 0.453714 4.93592 0.574994 4.92517L5.07499 4.53767L6.84999 0.375168C6.89802 0.262425 6.97814 0.166289 7.08037 0.0987161C7.1826 0.0311438 7.30245 -0.00488281 7.42499 -0.00488281C7.54754 -0.00488281 7.66739 0.0311438 7.76962 0.0987161C7.87185 0.166289 7.95197 0.262425 7.99999 0.375168L9.76249 4.53767L14.275 4.92517C14.3984 4.93232 14.5167 4.97662 14.6144 5.05227C14.7122 5.12791 14.7847 5.23135 14.8226 5.34899C14.8605 5.46664 14.8619 5.59299 14.8266 5.71144C14.7913 5.82989 14.721 5.9349 14.625 6.01267L11.25 8.98767L12.275 13.4002C12.3012 13.5188 12.2924 13.6425 12.2494 13.7561C12.2065 13.8698 12.1313 13.9685 12.0332 14.0401C11.935 14.1117 11.8181 14.1532 11.6968 14.1594C11.5755 14.1656 11.455 14.1364 11.35 14.0752L7.42499 11.7252Z" fill="black"/>
</g>
</g>
</mask>
<g mask="url(#mask0_0_614)">
<rect width="15" height="15" fill="#E62415"/>
</g>
<defs>
<clipPath id="clip0_0_614">
<rect width="15" height="15" fill="white"/>
</clipPath>
<clipPath id="clip1_0_614">
<rect width="15" height="15" fill="white"/>
</clipPath>
</defs>
</svg>
