<svg width="15" height="15" viewBox="0 0 15 15" fill="none" xmlns="http://www.w3.org/2000/svg">
<mask id="mask0_0_559" style="mask-type:alpha" maskUnits="userSpaceOnUse" x="0" y="0" width="15" height="15">
<g clip-path="url(#clip0_0_559)">
<g clip-path="url(#clip1_0_559)">
<path d="M7.42501 2.2248L8.61251 4.9998L8.91251 5.6873L9.66251 5.7623L12.7 6.0123L10.3875 8.0498L9.82501 8.5373L10 9.2748L10.6875 12.2373L8.07501 10.6498L7.42501 10.2623L6.77501 10.6498L4.16251 12.2373L4.85001 9.2748L5.00001 8.5373L4.42501 8.0498L2.15001 6.0373L5.18751 5.7873L5.93751 5.7123L6.25001 4.9998L7.50001 2.1998M7.42501 -0.000197696C7.30232 -0.00401692 7.1814 0.0298889 7.07858 0.0969455C6.97576 0.164002 6.89598 0.260982 6.85001 0.374802L5.07501 4.5373L0.57501 4.9248C0.453729 4.93555 0.338229 4.98149 0.242698 5.05698C0.147166 5.13247 0.0757636 5.23421 0.037261 5.34972C-0.00124166 5.46523 -0.00516758 5.58947 0.0259655 5.70718C0.0570985 5.82488 0.121935 5.93093 0.21251 6.0123L3.63751 8.9873L2.60001 13.3998C2.57713 13.4923 2.57572 13.5889 2.59589 13.6821C2.61606 13.7752 2.65728 13.8626 2.71639 13.9374C2.7755 14.0122 2.85093 14.0724 2.93693 14.1136C3.02292 14.1547 3.11718 14.1757 3.21251 14.1748C3.328 14.1721 3.4405 14.1375 3.53751 14.0748L7.42501 11.7248L11.3125 14.0748C11.4166 14.1426 11.5389 14.1771 11.663 14.1738C11.7872 14.1705 11.9075 14.1295 12.0078 14.0563C12.1081 13.9831 12.1839 13.8811 12.2249 13.7638C12.2659 13.6466 12.2703 13.5196 12.2375 13.3998L11.25 8.9873L14.625 6.0123C14.7211 5.93453 14.7913 5.82952 14.8266 5.71107C14.8619 5.59262 14.8605 5.46628 14.8226 5.34863C14.7848 5.23098 14.7122 5.12754 14.6145 5.0519C14.5167 4.97626 14.3984 4.93195 14.275 4.9248L9.76251 4.5373L8.00001 0.374802C7.95122 0.263004 7.87078 0.167927 7.7686 0.101292C7.66643 0.0346571 7.54699 -0.000622463 7.42501 -0.000197696Z" fill="black"/>
</g>
</g>
</mask>
<g mask="url(#mask0_0_559)">
<rect width="15" height="15" fill="#E62415"/>
</g>
<defs>
<clipPath id="clip0_0_559">
<rect width="15" height="15" fill="white"/>
</clipPath>
<clipPath id="clip1_0_559">
<rect width="15" height="15" fill="white"/>
</clipPath>
</defs>
</svg>
