<svg width="40" height="50" viewBox="0 0 40 50" fill="none" xmlns="http://www.w3.org/2000/svg">
<path d="M33.6342 3.43826H24.7107C24.3918 2.44007 23.7639 1.56908 22.9177 0.951064C22.0714 0.333056 21.0508 0 20.0029 0C18.955 0 17.9343 0.333056 17.088 0.951064C16.2419 1.56908 15.614 2.44007 15.2951 3.43826H6.36574C4.67745 3.43826 3.05829 4.1089 1.86441 5.30268C0.670634 6.49655 0 8.11572 0 9.80401V42.9695C0 44.6578 0.670634 46.2769 1.86441 47.4708C3.05829 48.6646 4.67745 49.3352 6.36574 49.3352H33.6342C35.3225 49.3352 36.9417 48.6646 38.1355 47.4708C39.3293 46.2769 40 44.6578 40 42.9695V9.80401C40 8.11572 39.3293 6.49655 38.1355 5.30268C36.9417 4.1089 35.3225 3.43826 33.6342 3.43826ZM15.7407 4.59567C15.8753 4.59859 16.0067 4.55458 16.1123 4.47119C16.218 4.3877 16.2912 4.27005 16.3194 4.13844C16.5033 3.29449 16.9704 2.53885 17.6431 1.997C18.3158 1.45514 19.1536 1.15968 20.0173 1.15968C20.8811 1.15968 21.7189 1.45514 22.3915 1.997C23.0643 2.53885 23.5313 3.29449 23.7152 4.13844C23.7434 4.27005 23.8167 4.3877 23.9224 4.47119C24.028 4.55458 24.1594 4.59859 24.2939 4.59567H27.4074V8.38618C27.4074 8.84663 27.2245 9.2882 26.8989 9.61372C26.5733 9.93934 26.1317 10.1223 25.6712 10.1223H14.3576C13.8971 10.1223 13.4556 9.93934 13.1299 9.61372C12.8044 9.2882 12.6215 8.84663 12.6215 8.38618V4.59567H15.7407ZM38.8426 42.9695C38.8426 44.3508 38.2938 45.6756 37.3171 46.6524C36.3403 47.6291 35.0156 48.1778 33.6342 48.1778H6.36574C4.98439 48.1778 3.6596 47.6291 2.68284 46.6524C1.70607 45.6756 1.15741 44.3508 1.15741 42.9695V9.80401C1.15741 8.42265 1.70607 7.09786 2.68284 6.1211C3.6596 5.14434 4.98439 4.59567 6.36574 4.59567H11.4641V8.38618C11.4641 9.15357 11.769 9.88951 12.3116 10.4321C12.8543 10.9748 13.5902 11.2797 14.3576 11.2797H25.6423C26.4098 11.2797 27.1457 10.9748 27.6884 10.4321C28.231 9.88951 28.5358 9.15357 28.5358 8.38618V4.59567H33.6342C35.0156 4.59567 36.3403 5.14434 37.3171 6.1211C38.2938 7.09786 38.8426 8.42265 38.8426 9.80401V42.9695Z" fill="black"/>
</svg>
