<svg width="224" height="27" viewBox="0 0 224 27" fill="none" xmlns="http://www.w3.org/2000/svg">
<path fill-rule="evenodd" clip-rule="evenodd" d="M96.0912 25.8709V5.15739H91.3153V19.1343L78.8671 5.15739H74.1351V25.8709H78.9088V11.7503L91.3153 25.8709H96.0912ZM194.663 14.0644C195.648 14.0644 197.302 13.751 197.302 11.7019C197.302 10.2335 196.339 9.39573 194.663 9.39573H185.943V14.0521L194.663 14.0644ZM202.814 25.8709H197.042L191.287 18.2948H185.68V25.8709H180.91V5.15739H194.402C199.049 5.15739 201.809 7.64334 201.809 11.8043C201.809 14.2986 200.43 17.1019 196.813 17.9748L202.814 25.8709ZM119.498 0C128.638 0 134.104 4.91302 134.104 13.1225C134.104 19.0112 130.277 25.8709 119.498 25.8709H107.969V0H119.498ZM112.758 4.2801V21.6035H119.498C123.156 21.6035 129.303 20.4691 129.303 12.8592C129.303 7.40293 125.729 4.2801 119.498 4.2801H112.758ZM209.764 21.6347V17.6342H220.783V13.3958H209.764V9.39573H224V5.15739H205.002V25.8709H224V21.6347H209.764ZM163.502 21.6347V17.6342H174.516V13.3958H163.502V9.39573H177.733V5.15739H158.726V25.8709H177.733V21.6347H163.502ZM141.318 21.6347V17.6342H152.324V13.3958H141.318V9.39573H155.551V5.15739H136.551V25.8709H155.551V21.6347H141.318ZM65.4813 5.15739V13.3958H53.0669V5.15739H48.2972V25.8709H53.0669V17.6342H65.4813V25.8709H70.251V5.15739H65.4813ZM33.2219 22.1279C30.4323 22.1279 25.7377 21.2607 25.7377 15.4537C25.7377 11.2927 28.4694 8.90303 33.2219 8.90303C37.9728 8.90303 40.6961 11.2927 40.6961 15.4537C40.6961 21.2607 36.012 22.1279 33.2219 22.1279ZM20.9763 15.6752C20.9763 20.5966 24.1822 26.3579 33.2219 26.3579C42.2599 26.3579 45.4697 20.5966 45.4697 15.6752C45.4697 8.78171 40.8903 4.66248 33.2219 4.66248C25.554 4.66248 20.9763 8.78171 20.9763 15.6752ZM0 20.9495C0 20.9495 2.70836 21.927 5.74064 21.927C8.97335 21.927 10.9903 21.4822 12.1138 20.3355C13.0495 19.3954 13.4213 17.8205 13.3752 15.4933C13.3752 15.4849 13.3752 0.0272557 13.3752 0.0272557H18.1511V16.1596C18.0821 23.308 14.63 26.3579 6.61133 26.3579C2.71231 26.3579 0 25.7329 0 25.7329V20.9495Z" fill="white"/>
</svg>
