<svg width="62" height="57" viewBox="0 0 62 57" fill="none" xmlns="http://www.w3.org/2000/svg">
<path fill-rule="evenodd" clip-rule="evenodd" d="M31.0094 0C40.527 0 49.6685 2.1965 57.6079 6.09344C60.4384 12.9281 62 20.385 62 28.1952C62 36.0009 60.4428 43.456 57.6118 50.2867C49.6725 54.1832 40.527 56.3802 31.0094 56.3802C21.4606 56.3802 12.3315 54.1753 4.37148 50.2512C1.55324 43.431 0 35.9908 0 28.1952C0 20.3978 1.55324 12.9532 4.37368 6.1286C12.3315 2.21144 21.4606 0 31.0094 0ZM20.0137 30.4633C20.3771 27.2052 21.2664 24.3487 22.5481 21.799C22.7379 21.4127 22.3561 21.3605 22.3561 21.3605C21.3354 21.1474 18.6442 20.6003 18.6442 20.6003L18.2874 19.4768C20.9637 18.4702 24.216 17.543 26.3954 17.0672C26.6735 16.5847 26.8155 16.1629 26.8155 15.7952C26.8155 15.5052 26.7232 15.2587 26.5483 15.0478C25.4999 13.8052 21.3895 14.3043 16.9929 16.0127L16.9178 15.7284C17.6612 15.1312 18.7487 14.3878 19.8028 13.9031C19.4364 12.6553 17.8616 12.0643 17.7192 12.0111C17.7131 12.0089 17.71 12.0076 17.7091 12.0072L17.895 11.8631C19.3353 12.0366 20.4812 12.6377 20.9843 13.4796C22.1847 13.1118 22.5982 13.0178 23.571 12.9387C23.4607 10.9109 21.5296 9.53694 21.5085 9.522L21.73 9.38843C23.5543 10.0484 24.8945 11.3534 25.3308 12.8886C26.2245 12.9136 26.5334 12.9448 27.2808 13.2559C27.5418 12.6483 27.6459 12.0617 27.6459 11.5186C27.6459 9.55759 26.333 8.12914 26.3124 8.11068L26.5562 7.99161C28.8463 9.16697 29.45 11.1886 29.45 12.9888C29.45 14.6571 28.9298 16.1313 28.7611 16.5803C28.7611 16.5803 31.3201 16.0645 33.2784 15.8119L33.3848 15.9248C33.2595 16.0961 32.3619 17.1924 30.0722 18.4684L28.1451 18.2342C27.9908 18.7189 26.9113 22.1707 26.9069 24.731V24.7394C26.9069 25.6748 27.1701 26.4038 27.6943 26.9108C28.6209 27.8111 30.172 27.859 31.2555 27.8234C38.6355 27.5457 41.8817 28.5963 42.3848 28.78C42.4243 28.6253 42.5122 28.258 42.5122 27.7004C42.5122 26.6081 42.0214 24.8163 40.3451 22.7138L40.5934 22.5969C40.5943 22.5973 40.5965 22.5987 40.6004 22.6009C40.8003 22.7133 45.044 25.1023 45.5682 28.7444L43.6436 29.5318C45.3761 31.3609 45.9816 33.5702 46.4641 35.3581L46.4649 35.3616C46.8129 36.6486 47.1139 37.7602 47.7436 38.3068C48.4356 38.9017 50.9691 40.2533 51.6128 40.5965C51.7051 40.6457 51.7587 40.6742 51.7622 40.6769C51.7622 40.6769 52.6871 41.8751 54.9711 45.8366C56.9584 40.19 57.9664 34.2618 57.9664 28.1912C57.9664 21.5652 56.7581 15.0851 54.3757 8.92487C47.2027 5.61495 39.1219 3.86091 31.0072 3.86091C22.8904 3.86091 14.803 5.6233 7.61153 8.95431C5.23576 15.1062 4.027 21.5775 4.027 28.1912C4.027 34.815 5.23356 41.2802 7.60714 47.4281C14.8013 50.7648 22.8904 52.5232 31.0072 52.5232C39.103 52.5232 47.1653 50.7775 54.3318 47.4782C52.8185 44.6068 50.3553 42.1282 50.2235 42.0047C50.1822 41.9902 50.035 41.945 49.8056 41.8738C48.2954 41.4063 43.2218 39.8354 41.3118 38.8328C39.5621 37.918 37.7273 35.6964 37.5185 35.4394C35.7711 35.3242 34.0197 35.3203 32.2138 35.5373C31.8979 35.5769 31.5771 35.6195 31.2524 35.663C29.2892 35.9249 27.181 36.2061 25.1515 35.8801C23.807 35.6586 22.5086 35.2306 21.1307 34.7754L21.1144 34.7697C19.0317 34.0825 16.88 33.372 14.4273 33.3804C14.7718 34.0487 16.8638 37.9474 19.8468 38.9435C19.874 38.9479 20.7695 39.15 21.11 39.407L22.5398 41.6875L22.3873 41.8505C22.3205 41.8232 15.6989 38.5428 11.3292 33.1066L11.1394 32.0209C13.672 31.0415 16.2829 30.8034 18.8186 30.5723C18.9645 30.5586 19.1103 30.5454 19.2562 30.5323C19.2562 30.5323 19.9074 30.4756 20.0137 30.4633ZM31.0072 2.30943C39.817 2.30943 48.3011 4.27043 55.7163 7.76181C58.2296 14.1141 59.6097 21.0032 59.6097 28.2079C59.6097 35.3932 58.2357 42.2784 55.733 48.6162C48.3135 52.1142 39.8209 54.0769 31.0072 54.0769C22.1663 54.0769 13.6905 52.1014 6.25426 48.5828C3.75546 42.2512 2.38588 35.3787 2.38588 28.2079C2.38588 21.016 3.75546 14.1351 6.2692 7.7952C13.705 4.28053 22.1746 2.30943 31.0072 2.30943Z" fill="white"/>
</svg>
