<svg width="19" height="23" viewBox="0 0 19 23" fill="none" xmlns="http://www.w3.org/2000/svg">
<path d="M15.9637 16.6666C14.557 18.114 12.6463 18.8983 10.6357 18.8983C6.5146 18.8983 3.51811 15.6613 3.51811 11.2184C3.51811 6.75506 6.5146 3.51811 10.6357 3.51811C12.6269 3.51811 14.5164 4.30145 15.9443 5.72941L16.5066 6.29264L18.9796 3.81961L18.4368 3.25638C16.3864 1.14496 13.6119 0 10.6357 0C4.56411 0 0 4.82491 0 11.2378C0 17.6312 4.58445 22.4367 10.6357 22.4367C13.6322 22.4367 16.4067 21.2714 18.4571 19.16L19 18.5968L16.5473 16.084L15.9637 16.6666Z" fill="#17313B"/>
</svg>
