<svg width="60" height="23" viewBox="0 0 60 23" fill="none" xmlns="http://www.w3.org/2000/svg">
<path d="M0 0H3.68V23H0V0ZM16.56 15.663C16.56 19.1829 13.6004 19.4635 12.7199 19.4635C10.5202 19.4635 10.12 17.4046 10.12 16.1626V7.36H6.44V16.1442C6.44 18.3246 7.12448 20.1241 8.32416 21.3238C9.384 22.3845 10.9719 22.9641 12.6923 22.9641C13.9122 22.9641 15.64 22.5842 16.56 21.7442V23H20.24V7.36H16.56V15.663ZM27.6 1.84H23.92V7.36H21.16V11.04H23.92V23H27.6V11.04H30.36V7.36H27.6V1.84ZM41.9492 18.3236C41.1479 19.044 40.0899 19.4433 38.9289 19.4433C36.3694 19.4433 34.4899 17.5637 34.4899 14.9831C34.4899 12.4025 36.3096 10.6021 38.9289 10.6021C40.0697 10.6021 41.1479 10.982 41.9695 11.7024L42.5279 12.1826L45.0092 9.70232L44.3882 9.14204C42.9281 7.82368 40.9897 7.084 38.928 7.084C34.328 7.084 30.9874 10.4034 30.9874 14.9638C30.9874 19.5049 34.408 22.943 38.928 22.943C41.0283 22.943 42.987 22.2033 44.4286 20.8638L45.0285 20.3035L42.5086 17.825L41.9492 18.3236ZM58.144 8.72344C57.0842 7.6636 55.8422 7.084 54.1218 7.084C52.9018 7.084 51.52 7.46396 50.6 8.303V0H46.92V23H50.6V14.3842C50.6 10.8643 53.1006 10.5846 53.981 10.5846C56.1807 10.5846 56.12 12.6445 56.12 13.8846V23H59.8V13.904C59.8 11.7236 59.3446 9.92404 58.144 8.72344Z" fill="#17313B"/>
</svg>
